<svg width="25" height="24" viewBox="0 0 25 24" fill="none" xmlns="http://www.w3.org/2000/svg">
<g id="Icon ">
<path id="Vector" d="M10.6367 11V17M14.6367 11V17M4.63672 7H20.6367M19.6367 7L18.7697 19.142C18.7338 19.6466 18.508 20.1188 18.1378 20.4636C17.7677 20.8083 17.2806 21 16.7747 21H8.49872C7.99286 21 7.50579 20.8083 7.1356 20.4636C6.76542 20.1188 6.53963 19.6466 6.50372 19.142L5.63672 7H19.6367ZM15.6367 7V4C15.6367 3.73478 15.5314 3.48043 15.3438 3.29289C15.1563 3.10536 14.9019 3 14.6367 3H10.6367C10.3715 3 10.1171 3.10536 9.92961 3.29289C9.74208 3.48043 9.63672 3.73478 9.63672 4V7H15.6367Z" stroke="#838799" stroke-width="1.5" stroke-linecap="round" stroke-linejoin="round"/>
</g>
</svg>
