<svg width="17" height="16" viewBox="0 0 17 16" fill="none" xmlns="http://www.w3.org/2000/svg">
<g id="Icon ">
<path id="Vector" d="M2.63672 5.33301L7.89672 8.83967C8.11583 8.98586 8.37332 9.06387 8.63672 9.06387C8.90012 9.06387 9.15761 8.98586 9.37672 8.83967L14.6367 5.33301M3.97005 12.6663H13.3034C13.657 12.6663 13.9961 12.5259 14.2462 12.2758C14.4962 12.0258 14.6367 11.6866 14.6367 11.333V4.66634C14.6367 4.31272 14.4962 3.97358 14.2462 3.72353C13.9961 3.47348 13.657 3.33301 13.3034 3.33301H3.97005C3.61643 3.33301 3.27729 3.47348 3.02724 3.72353C2.77719 3.97358 2.63672 4.31272 2.63672 4.66634V11.333C2.63672 11.6866 2.77719 12.0258 3.02724 12.2758C3.27729 12.5259 3.61643 12.6663 3.97005 12.6663Z" stroke="#838799" stroke-width="1.5" stroke-linecap="round" stroke-linejoin="round"/>
</g>
</svg>
