<svg width="25" height="24" viewBox="0 0 25 24" fill="none" xmlns="http://www.w3.org/2000/svg">
<g id="Icon old/exclamation-circle/24/on">
<g id="Vector">
<path d="M20.3618 15.4442C20.8141 14.3522 21.0469 13.1819 21.0469 12C21.0469 9.61305 20.0987 7.32387 18.4108 5.63604C16.723 3.94821 14.4338 3 12.0469 3C9.65993 3 7.37074 3.94821 5.68291 5.63604C3.99509 7.32387 3.04688 9.61305 3.04688 12C3.04688 13.1819 3.27967 14.3522 3.73196 15.4442C4.18425 16.5361 4.84719 17.5282 5.68291 18.364C6.51864 19.1997 7.51079 19.8626 8.60272 20.3149C9.69465 20.7672 10.865 21 12.0469 21C13.2288 21 14.3991 20.7672 15.491 20.3149C16.583 19.8626 17.5751 19.1997 18.4108 18.364C19.2466 17.5282 19.9095 16.5361 20.3618 15.4442Z" fill="#EF4444"/>
<path d="M12.0469 8V12M12.0469 16H12.0569M21.0469 12C21.0469 13.1819 20.8141 14.3522 20.3618 15.4442C19.9095 16.5361 19.2466 17.5282 18.4108 18.364C17.5751 19.1997 16.583 19.8626 15.491 20.3149C14.3991 20.7672 13.2288 21 12.0469 21C10.865 21 9.69465 20.7672 8.60272 20.3149C7.51079 19.8626 6.51864 19.1997 5.68291 18.364C4.84719 17.5282 4.18425 16.5361 3.73196 15.4442C3.27967 14.3522 3.04687 13.1819 3.04688 12C3.04688 9.61305 3.99509 7.32387 5.68291 5.63604C7.37074 3.94821 9.65993 3 12.0469 3C14.4338 3 16.723 3.94821 18.4108 5.63604C20.0987 7.32387 21.0469 9.61305 21.0469 12Z" stroke="white" stroke-width="1.5" stroke-linecap="round" stroke-linejoin="round"/>
</g>
</g>
</svg>
