<svg width="24" height="25" viewBox="0 0 24 25" fill="none" xmlns="http://www.w3.org/2000/svg">
<g id="Icon ">
<path id="Vector" d="M13.8731 19.785C13.2549 19.9019 12.6272 19.9604 11.9981 19.96C7.52008 19.96 3.73008 17.017 2.45508 12.96C2.79835 11.8681 3.32707 10.8434 4.01808 9.93096M9.87608 10.839C10.4387 10.2763 11.2019 9.96021 11.9976 9.96021C12.7933 9.96021 13.5564 10.2763 14.1191 10.839C14.6817 11.4016 14.9978 12.1647 14.9978 12.9605C14.9978 13.7562 14.6817 14.5193 14.1191 15.082M9.87608 10.839L14.1191 15.082M9.87608 10.839L14.1181 15.08M14.1191 15.082L17.4101 18.372M9.87808 10.84L6.58808 7.54996M6.58808 7.54996L2.99808 3.95996M6.58808 7.54996C8.20043 6.50953 10.0792 5.95736 11.9981 5.95996C16.4761 5.95996 20.2661 8.90296 21.5411 12.96C20.8371 15.1904 19.3755 17.1045 17.4091 18.371M6.58808 7.54996L17.4091 18.371M17.4091 18.371L20.9981 21.96" stroke="#838799" stroke-width="1.5" stroke-linecap="round" stroke-linejoin="round"/>
</g>
</svg>
