<svg width="20" height="20" viewBox="0 0 20 20" fill="none" xmlns="http://www.w3.org/2000/svg">
<g id="Icon ">
<path id="Vector" d="M9.99992 4.99992V3.33325M9.99992 4.99992C9.55789 4.99992 9.13397 5.17551 8.82141 5.48807C8.50885 5.80063 8.33325 6.22456 8.33325 6.66659C8.33325 7.10861 8.50885 7.53254 8.82141 7.8451C9.13397 8.15766 9.55789 8.33325 9.99992 8.33325M9.99992 4.99992C10.4419 4.99992 10.8659 5.17551 11.1784 5.48807C11.491 5.80063 11.6666 6.22456 11.6666 6.66659C11.6666 7.10861 11.491 7.53254 11.1784 7.8451C10.8659 8.15766 10.4419 8.33325 9.99992 8.33325M9.99992 8.33325V16.6666M4.99992 14.9999C5.44195 14.9999 5.86587 14.8243 6.17843 14.5118C6.49099 14.1992 6.66659 13.7753 6.66659 13.3333C6.66659 12.8912 6.49099 12.4673 6.17843 12.1547C5.86587 11.8422 5.44195 11.6666 4.99992 11.6666M4.99992 14.9999C4.55789 14.9999 4.13397 14.8243 3.82141 14.5118C3.50885 14.1992 3.33325 13.7753 3.33325 13.3333C3.33325 12.8912 3.50885 12.4673 3.82141 12.1547C4.13397 11.8422 4.55789 11.6666 4.99992 11.6666M4.99992 14.9999V16.6666M4.99992 11.6666V3.33325M14.9999 14.9999C15.4419 14.9999 15.8659 14.8243 16.1784 14.5118C16.491 14.1992 16.6666 13.7753 16.6666 13.3333C16.6666 12.8912 16.491 12.4673 16.1784 12.1547C15.8659 11.8422 15.4419 11.6666 14.9999 11.6666M14.9999 14.9999C14.5579 14.9999 14.134 14.8243 13.8214 14.5118C13.5088 14.1992 13.3333 13.7753 13.3333 13.3333C13.3333 12.8912 13.5088 12.4673 13.8214 12.1547C14.134 11.8422 14.5579 11.6666 14.9999 11.6666M14.9999 14.9999V16.6666M14.9999 11.6666V3.33325" stroke="black" stroke-width="1.5" stroke-linecap="round" stroke-linejoin="round"/>
</g>
</svg>
