<svg width="17" height="17" viewBox="0 0 17 17" fill="none" xmlns="http://www.w3.org/2000/svg">
<g id="Icon ">
<path id="Vector" d="M11.8333 11.166L14.5 8.49935M14.5 8.49935L11.8333 5.83268M14.5 8.49935H5.16667M9.16667 11.166V11.8327C9.16667 12.3631 8.95595 12.8718 8.58088 13.2469C8.20581 13.622 7.6971 13.8327 7.16667 13.8327H4.5C3.96957 13.8327 3.46086 13.622 3.08579 13.2469C2.71071 12.8718 2.5 12.3631 2.5 11.8327V5.16602C2.5 4.63558 2.71071 4.12687 3.08579 3.7518C3.46086 3.37673 3.96957 3.16602 4.5 3.16602H7.16667C7.6971 3.16602 8.20581 3.37673 8.58088 3.7518C8.95595 4.12687 9.16667 4.63558 9.16667 5.16602V5.83268" stroke="#6B6F80" stroke-width="1.5" stroke-linecap="round" stroke-linejoin="round"/>
</g>
</svg>
