<svg width="175" height="98" viewBox="0 0 175 98" fill="none" xmlns="http://www.w3.org/2000/svg">
<g id="Key">
<path id="shadow" d="M130.679 97.7218L117.354 89.9585L118.004 85.0629L113.504 82.5279L102.937 81.5615L95.6013 77.2837L95.2052 67.8727L91.2919 65.5912L79.8845 68.1262L65.0708 59.5073C59.8564 60.5669 54.5483 61.0977 49.2273 61.0916C36.5525 61.0916 24.5273 58.1764 15.4489 52.8847C5.6101 47.1652 0.207465 39.2909 0.239152 30.7038C0.270839 22.1166 5.72101 14.3057 15.6074 8.64955C24.5748 3.51624 36.3941 0.727783 48.8788 0.727783C61.3635 0.727783 73.5947 3.64298 82.6889 8.93472C91.2919 13.9413 96.6153 20.8016 97.6768 28.2322C98.3062 32.9591 97.2759 37.758 94.7616 41.81L174.344 88.1365L157.375 97.8803L130.679 97.7218ZM29.8032 23.8435C30.1395 24.2498 30.5544 24.5839 31.0231 24.8258C33.0331 25.8002 35.2377 26.3064 37.4714 26.3064C39.7051 26.3064 41.9098 25.8002 43.9197 24.8258C44.3948 24.5938 44.8117 24.2581 45.1397 23.8435C44.8151 23.4319 44.404 23.0965 43.9356 22.8612C41.9229 21.8866 39.7156 21.3803 37.4794 21.3803C35.2431 21.3803 33.0358 21.8866 31.0231 22.8612C30.5544 23.1031 30.1395 23.4372 29.8032 23.8435Z" fill="#E0E0E0"/>
<g id="key">
<path id="Vector" d="M7.66064 27.7002V33.2612C7.66064 39.7888 11.8909 46.3321 20.4939 51.3545C33.4697 58.896 52.5454 60.8607 68.5473 57.0265L83.3452 65.582L94.7525 63.0471L102.532 67.5625L102.912 76.9735L107.11 79.4134L117.646 80.364L125.204 84.6259V89.9177L134.71 95.4471L158.871 95.5263L167.538 90.5673V84.9587L90.3797 45.6826C93.6789 42.4923 95.6151 38.1487 95.7823 33.5623V27.9378C94.6416 22.5193 90.1262 19.6992 82.9332 15.5006C65.7588 5.50336 37.8426 5.40833 20.6048 15.2788C12.8573 19.7784 8.45282 21.7747 7.66064 27.7002ZM31.4259 21.3627C34.16 19.9727 37.1837 19.2481 40.2508 19.2481C43.3179 19.2481 46.3416 19.9727 49.0756 21.3627C53.9554 24.1829 53.9396 28.7617 49.0756 31.5501C46.3416 32.9402 43.3179 33.6647 40.2508 33.6647C37.1837 33.6647 34.16 32.9402 31.4259 31.5501C26.4352 28.5715 26.4511 24.0086 31.3467 21.2202L31.4259 21.3627Z" fill="#E7AEB4"/>
<path id="Vector_2" opacity="0.2" d="M7.66064 27.7002V33.2612C7.66064 39.7888 11.8909 46.3321 20.4939 51.3545C33.4697 58.896 52.5454 60.8607 68.5473 57.0265L83.3452 65.582L94.7525 63.0471L102.532 67.5625L102.912 76.9735L107.11 79.4134L117.646 80.364L125.204 84.6259V89.9177L134.71 95.4471L158.871 95.5263L167.538 90.5673V84.9587L90.3797 45.6826C93.6789 42.4923 95.6151 38.1487 95.7823 33.5623V27.9378C94.6416 22.5193 90.1262 19.6992 82.9332 15.5006C65.7588 5.50336 37.8426 5.40833 20.6048 15.2788C12.8573 19.7784 8.45282 21.7747 7.66064 27.7002ZM31.4259 21.3627C34.16 19.9727 37.1837 19.2481 40.2508 19.2481C43.3179 19.2481 46.3416 19.9727 49.0756 21.3627C53.9554 24.1829 53.9396 28.7617 49.0756 31.5501C46.3416 32.9402 43.3179 33.6647 40.2508 33.6647C37.1837 33.6647 34.16 32.9402 31.4259 31.5501C26.4352 28.5715 26.4511 24.0086 31.3467 21.2202L31.4259 21.3627Z" fill="black"/>
<path id="Vector_3" d="M20.5097 45.6667C33.4697 53.2082 52.5611 55.1728 68.5472 51.3387L83.3451 59.9734L94.7682 57.4226L102.532 61.9538L102.928 71.3649L107.11 73.8048L117.63 74.7554L125.837 79.3658L125.172 84.309L134.678 89.8384H158.839L167.522 84.8794L90.3954 40.0739C99.5371 30.4569 97.0814 18.1148 82.9648 9.89201C65.7904 -0.105256 37.89 -0.20034 20.6364 9.67018C3.3828 19.5407 3.31943 35.6219 20.5097 45.6667ZM31.3625 15.564C34.0993 14.1738 37.1256 13.4492 40.1952 13.4492C43.2649 13.4492 46.2912 14.1738 49.028 15.564C53.892 18.3841 53.8761 22.9629 49.028 25.7513C46.294 27.1414 43.2703 27.866 40.2032 27.866C37.1361 27.866 34.1123 27.1414 31.3783 25.7513C26.4668 22.947 26.4827 18.4 31.3625 15.6115V15.564Z" fill="#E7AEB4"/>
<path id="Vector_4" opacity="0.3" d="M20.5097 45.6667C33.4697 53.2082 52.5611 55.1728 68.5472 51.3387L83.3451 59.9734L94.7682 57.4226L102.532 61.9538L102.928 71.3649L107.11 73.8048L117.63 74.7554L125.837 79.3658L125.172 84.309L134.678 89.8384H158.839L167.522 84.8794L90.3954 40.0739C99.5371 30.4569 97.0814 18.1148 82.9648 9.89201C65.7904 -0.105256 37.89 -0.20034 20.6364 9.67018C3.3828 19.5407 3.31943 35.6219 20.5097 45.6667ZM31.3625 15.564C34.0993 14.1738 37.1256 13.4492 40.1952 13.4492C43.2649 13.4492 46.2912 14.1738 49.028 15.564C53.892 18.3841 53.8761 22.9629 49.028 25.7513C46.294 27.1414 43.2703 27.866 40.2032 27.866C37.1361 27.866 34.1123 27.1414 31.3783 25.7513C26.4668 22.947 26.4827 18.4 31.3625 15.6115V15.564Z" fill="white"/>
<g id="Group" opacity="0.2">
<path id="Vector_5" d="M95.6713 29.5696L52.1966 22.7094C53.3691 20.2854 52.3076 17.592 49.0279 15.6749C46.2911 14.2847 43.2648 13.5601 40.1952 13.5601C37.1255 13.5601 34.0992 14.2847 31.3624 15.6749C29.9521 16.3988 28.8089 17.5531 28.0987 18.9703L12.2551 16.4671C14.6557 13.7601 17.5009 11.4828 20.668 9.73357C21.1592 9.44839 21.6979 9.19488 22.2524 8.92554L93.7701 20.2061C95.3642 23.0529 96.0289 26.3266 95.6713 29.5696Z" fill="white"/>
<path id="Vector_6" d="M10.1163 36.0655C8.53662 33.6013 7.68646 30.7404 7.66403 27.8135C7.6416 24.8865 8.44783 22.0129 9.98954 19.5248L28.0353 22.3767C28.7287 23.848 29.8867 25.0505 31.3308 25.7989C34.0648 27.1889 37.0885 27.9135 40.1556 27.9135C43.2227 27.9135 46.2464 27.1889 48.9805 25.7989L49.2181 25.6563L94.895 32.8493C93.9292 35.5329 92.3942 37.9759 90.3954 40.0105L110.818 51.8932L10.1163 36.0655Z" fill="white"/>
</g>
<path id="Vector_7" d="M23.1396 41.2781C16.5487 37.444 12.7938 32.4849 12.8096 27.6368C12.8255 22.7887 16.6279 17.8613 23.2347 14.0747C30.8237 9.73361 40.9953 7.3571 51.8956 7.40463C62.7959 7.45216 72.9516 9.87621 80.4931 14.2807C87.084 18.1148 90.839 23.0897 90.8231 27.922C90.8073 32.7543 87.0048 37.7133 80.3981 41.4841C72.809 45.8252 62.6375 48.2017 51.7372 48.1542C40.8368 48.1066 30.6019 45.6826 23.1396 41.2781ZM24.011 15.4531C17.9112 18.9387 14.4098 23.3749 14.394 27.6527C14.3781 31.9304 17.8479 36.3824 23.9001 39.9155C31.2198 44.1774 41.0903 46.5381 51.7213 46.5698C62.3523 46.6015 72.2387 44.32 79.5742 40.1215C85.6898 36.6201 89.1912 32.1998 89.2071 27.922C89.2229 23.6443 85.7532 19.1922 79.701 15.6433C72.3813 11.3972 62.5108 9.02067 51.8797 8.98898C41.2487 8.9573 31.2832 11.2387 23.9318 15.4531H24.011Z" fill="#E7AEB4"/>
<path id="Vector_8" opacity="0.1" d="M35.8145 51.4654V57.074C46.6108 59.4564 57.8013 59.4131 68.5789 56.9473V51.3387C57.8013 53.8045 46.6108 53.8478 35.8145 51.4654Z" fill="black"/>
<path id="Vector_9" opacity="0.1" d="M83.3608 59.9734L83.345 65.582L94.7523 63.047L94.784 57.4226L83.3608 59.9734Z" fill="black"/>
<path id="Vector_10" opacity="0.1" d="M102.547 61.9539L102.531 67.5625L102.912 76.9735L102.943 71.3649L102.547 61.9539Z" fill="black"/>
<path id="Vector_11" opacity="0.1" d="M107.126 73.8048L107.11 79.4134L117.63 80.3799L117.646 74.7554L107.126 73.8048Z" fill="black"/>
<path id="Vector_12" opacity="0.1" d="M134.675 89.8732L134.654 95.4818L158.816 95.5703L158.836 89.9617L134.675 89.8732Z" fill="black"/>
<path id="Vector_13" opacity="0.15" d="M167.506 84.9587L167.474 90.5673L158.808 95.5263L158.824 89.9177L162.626 87.7471L162.61 90.1712L164.717 88.9671V86.5113L167.506 84.9587Z" fill="black"/>
<path id="Vector_14" d="M164.717 86.5113L162.626 87.7471L162.61 90.1711L164.717 88.9671V86.5113Z" fill="#E7AEB4"/>
<path id="Vector_15" opacity="0.3" d="M164.717 86.5113L162.626 87.7471L162.61 90.1711L164.717 88.9671V86.5113Z" fill="white"/>
<path id="Vector_16" d="M164.717 86.5113V88.9671L85.6423 42.9257L87.7495 41.7058L164.717 86.5113Z" fill="#E7AEB4"/>
<path id="Vector_17" opacity="0.15" d="M87.7495 41.7058V44.1457L85.6423 42.9257L87.7495 41.7058Z" fill="black"/>
</g>
</g>
</svg>
