<svg width="199" height="113" viewBox="0 0 199 113" fill="none" xmlns="http://www.w3.org/2000/svg">
<g id="Group 2">
<path id="shadow" d="M20.0707 112.112L0.829834 101.17L91.2983 48.505C88.4281 43.9002 87.2533 38.4386 87.9763 33.0608C89.1831 24.6133 95.2306 16.7895 105.021 11.1217C115.353 5.10129 129.007 1.79279 143.448 1.79279C157.645 1.79279 171.082 5.0064 181.279 10.8505C192.506 17.2777 198.716 26.1862 198.757 35.9219C198.797 45.6576 192.641 54.6068 181.469 61.1289C171.136 67.1357 157.495 70.4578 143.055 70.4578C136.997 70.4669 130.953 69.8535 125.021 68.6272L108.18 78.4307L95.2034 75.5561L90.756 78.1324L90.3085 88.8308L81.9559 93.6986L69.9422 94.7969L64.8303 97.6715L65.5761 103.231L50.4302 112.017L20.0707 112.112ZM163.719 26.9049C161.432 25.7982 158.924 25.2232 156.384 25.2232C153.843 25.2232 151.335 25.7982 149.048 26.9049C148.521 27.179 148.059 27.5627 147.692 28.0303C148.064 28.4888 148.525 28.8671 149.048 29.1422C151.337 30.2403 153.844 30.8104 156.384 30.8104C158.923 30.8104 161.43 30.2403 163.719 29.1422C164.243 28.8637 164.705 28.4807 165.075 28.0167C164.7 27.5615 164.239 27.1839 163.719 26.9049Z" fill="#E0E0E0"/>
<g id="Key">
<g id="key">
<path id="Vector" d="M178.621 15.2166C159.014 3.98936 127.285 4.1114 107.76 15.4742C99.6239 20.2336 94.4442 23.4336 93.156 29.6031V35.9896C93.3462 41.2069 95.5472 46.1485 99.2984 49.7796L11.6367 94.3901V100.763L21.4944 106.404L48.9658 106.309L59.732 100.031V94.0104L68.3151 89.1697L80.2881 88.0714L85.0475 85.3595L85.4814 74.6611L94.3221 69.5221L107.299 72.4103L124.139 62.6068C142.322 66.8916 164.018 64.7356 178.757 56.1525C188.547 50.444 193.414 42.9999 193.36 35.5829V29.2642C192.438 22.6065 187.435 20.2607 178.621 15.2166ZM166.418 33.5489C163.315 35.1397 159.88 35.9762 156.393 35.9903C152.906 36.0044 149.465 35.1959 146.35 33.6303C140.79 30.4438 140.777 25.2506 146.35 22.037C149.453 20.4452 152.888 19.6092 156.376 19.5974C159.863 19.5857 163.304 20.3983 166.418 21.9692C171.977 25.1421 171.991 30.3354 166.458 33.5489H166.418Z" fill="#E7AEB4"/>
<path id="Vector_2" opacity="0.2" d="M178.621 15.2166C159.014 3.98936 127.285 4.1114 107.76 15.4742C99.6239 20.2336 94.4442 23.4336 93.156 29.6031V35.9896C93.3462 41.2069 95.5472 46.1485 99.2984 49.7796L11.6367 94.3901V100.763L21.4944 106.404L48.9658 106.309L59.732 100.031V94.0104L68.3151 89.1697L80.2881 88.0714L85.0475 85.3595L85.4814 74.6611L94.3221 69.5221L107.299 72.4103L124.139 62.6068C142.322 66.8916 164.018 64.7356 178.757 56.1525C188.547 50.444 193.414 42.9999 193.36 35.5829V29.2642C192.438 22.6065 187.435 20.2607 178.621 15.2166ZM166.418 33.5489C163.315 35.1397 159.88 35.9762 156.393 35.9903C152.906 36.0044 149.465 35.1959 146.35 33.6303C140.79 30.4438 140.777 25.2506 146.35 22.037C149.453 20.4452 152.888 19.6092 156.376 19.5974C159.863 19.5857 163.304 20.3983 166.418 21.9692C171.977 25.1421 171.991 30.3354 166.458 33.5489H166.418Z" fill="black"/>
<path id="Vector_3" d="M178.594 8.84368C158.987 -2.38352 127.258 -2.27505 107.732 9.10132C91.6916 18.4438 88.8983 32.4642 99.2849 43.4067L11.6367 94.3901L21.508 100.031L48.9658 99.9359L59.7456 93.6579L58.9862 88.0443L68.3016 82.7968L80.2745 81.6985L85.0339 78.9866L85.4814 68.2882L94.3085 63.1492L107.285 66.0238L124.126 56.2203C142.377 60.4916 164.072 58.3356 178.743 49.7525C198.269 38.3897 198.201 20.0709 178.594 8.84368ZM166.39 27.176C163.285 28.768 159.848 29.6039 156.358 29.6157C152.868 29.6275 149.425 28.8148 146.309 27.2438C140.763 24.0709 140.736 18.8777 146.309 15.6641C149.414 14.0732 152.851 13.2367 156.34 13.2226C159.829 13.2084 163.272 14.017 166.39 15.5827C171.95 18.7692 171.977 23.9489 166.445 27.176H166.39Z" fill="#E7AEB4"/>
<path id="Vector_4" opacity="0.3" d="M178.594 8.84368C158.987 -2.38352 127.258 -2.27505 107.732 9.10132C91.6916 18.4438 88.8983 32.4642 99.2849 43.4067L11.6367 94.3901L21.508 100.031L48.9658 99.9359L59.7456 93.6579L58.9862 88.0443L68.3016 82.7968L80.2745 81.6985L85.0339 78.9866L85.4814 68.2882L94.3085 63.1492L107.285 66.0238L124.126 56.2203C142.377 60.4916 164.072 58.3356 178.743 49.7525C198.269 38.3897 198.201 20.0709 178.594 8.84368ZM166.39 27.176C163.285 28.768 159.848 29.6039 156.358 29.6157C152.868 29.6275 149.425 28.8148 146.309 27.2438C140.763 24.0709 140.736 18.8777 146.309 15.6641C149.414 14.0732 152.851 13.2367 156.34 13.2226C159.829 13.2084 163.272 14.017 166.39 15.5827C171.95 18.7692 171.977 23.9489 166.445 27.176H166.39Z" fill="white"/>
<g id="Group" opacity="0.2">
<path id="Vector_5" d="M93.3051 31.4608L142.716 23.6641C141.36 20.9522 142.58 17.8336 146.323 15.6641C149.428 14.0731 152.864 13.2367 156.354 13.2225C159.843 13.2084 163.286 14.017 166.404 15.5827C168.005 16.4152 169.304 17.7288 170.119 19.3386L188.153 16.4912C185.428 13.414 182.194 10.8273 178.594 8.84366C178.024 8.51824 177.414 8.2335 176.831 7.92163L95.4747 20.7488C93.6454 24.0034 92.8864 27.7509 93.3051 31.4608Z" fill="white"/>
<path id="Vector_6" d="M190.553 38.7964C192.351 35.9955 193.319 32.7427 193.346 29.4145C193.372 26.0863 192.456 22.8186 190.702 19.9895L170.173 23.2167C169.397 24.8953 168.086 26.2688 166.445 27.1218C163.339 28.7137 159.902 29.5496 156.412 29.5614C152.922 29.5732 149.479 28.7605 146.363 27.1896L146.092 27.0268L94.1729 35.1625C95.2794 38.2068 97.0221 40.9803 99.2848 43.2982L76.071 56.8576L190.553 38.7964Z" fill="white"/>
</g>
<path id="Vector_7" d="M143.326 52.6C130.933 52.6 119.366 49.8881 110.783 45.0067C103.271 40.7083 98.9594 35.0947 98.9323 29.5896C98.9051 24.0845 103.19 18.4302 110.675 14.0776C119.258 9.07418 130.81 6.30807 143.217 6.25383C155.624 6.1996 167.177 8.96573 175.76 13.8471C183.272 18.1455 187.597 23.7726 187.611 29.2642C187.624 34.7558 183.353 40.4236 175.868 44.7762C167.258 49.7796 155.706 52.5457 143.326 52.6ZM143.163 8.05722C131.082 8.05722 119.854 10.7691 111.543 15.637C104.627 19.7048 100.695 24.7354 100.695 29.5761C100.695 34.4168 104.695 39.4744 111.637 43.4473C119.99 48.2338 131.244 50.8372 143.312 50.7966C155.38 50.7559 166.621 48.0847 174.933 43.2169C181.848 39.149 185.78 34.1185 185.78 29.2778C185.78 24.437 181.78 19.3794 174.838 15.4064C166.485 10.62 155.231 8.01654 143.163 8.05722Z" fill="#E7AEB4"/>
<path id="Vector_8" opacity="0.1" d="M161.36 56.3424V62.7153C149.088 65.428 136.367 65.3862 124.112 62.5932V56.2203C136.367 59.0133 149.088 59.055 161.36 56.3424Z" fill="black"/>
<path id="Vector_9" opacity="0.1" d="M107.285 66.0102L107.312 72.3967L94.3357 69.5085L94.3086 63.1356L107.285 66.0102Z" fill="black"/>
<path id="Vector_10" opacity="0.1" d="M85.4814 68.2747L85.4949 74.6476L85.061 85.346L85.0339 78.9731L85.4814 68.2747Z" fill="black"/>
<path id="Vector_11" opacity="0.1" d="M80.2745 81.7392L80.3016 88.1121L68.3286 89.2104L68.3015 82.8375L80.2745 81.7392Z" fill="black"/>
<path id="Vector_12" opacity="0.1" d="M48.9799 99.9592L21.5222 100.06L21.5456 106.433L49.0032 106.332L48.9799 99.9592Z" fill="black"/>
<path id="Vector_13" opacity="0.15" d="M11.6367 94.4308L11.6638 100.804L21.5215 106.444L21.508 100.072L17.1825 97.5901L17.1961 100.343L14.8096 98.9868L14.7961 96.1935L11.6367 94.4308Z" fill="black"/>
<path id="Vector_14" d="M14.7961 96.1935L17.1826 97.5901L17.1961 100.343L14.8097 98.9868L14.7961 96.1935Z" fill="#E7AEB4"/>
<path id="Vector_15" opacity="0.3" d="M14.7961 96.1935L17.1826 97.5901L17.1961 100.343L14.8097 98.9868L14.7961 96.1935Z" fill="white"/>
<path id="Vector_16" d="M14.7961 96.1935L14.8097 98.9868L104.682 46.6474L102.295 45.2507L14.7961 96.1935Z" fill="#E7AEB4"/>
<path id="Vector_17" opacity="0.15" d="M102.295 45.2507L102.309 48.0304L104.682 46.6474L102.295 45.2507Z" fill="black"/>
</g>
</g>
</g>
</svg>
