<svg width="268" height="268" viewBox="0 0 268 268" fill="none" xmlns="http://www.w3.org/2000/svg">
<path d="M156.333 105.02L156.359 105.123L156.385 105.227L156.41 105.331L156.436 105.434L156.462 105.538L156.488 105.641L156.513 105.745L156.539 105.848L156.565 105.951L156.59 106.055L156.616 106.158L156.642 106.261L156.667 106.364L156.693 106.467L156.718 106.57L156.744 106.673L156.77 106.776L156.795 106.879L156.821 106.982L156.846 107.084L156.872 107.187L156.897 107.29L156.923 107.392L156.948 107.495L156.974 107.597L156.999 107.7L157.025 107.802L157.05 107.904L157.075 108.007L157.101 108.109L157.126 108.211L157.152 108.313L157.177 108.415L157.202 108.517L157.228 108.619L157.253 108.721L157.278 108.823L157.304 108.925L157.329 109.026L157.354 109.128L157.379 109.23L157.405 109.331L157.43 109.433L157.455 109.534L157.48 109.635L157.505 109.737L157.531 109.838L157.556 109.939L157.581 110.04L157.606 110.141L157.631 110.242L157.656 110.343L157.681 110.444L157.706 110.545L157.731 110.646L157.756 110.746L157.781 110.847L157.806 110.948L157.831 111.048L157.856 111.149L157.881 111.249L157.906 111.349L157.931 111.45L157.956 111.55L157.981 111.65L158.006 111.75L158.031 111.85L158.056 111.95L158.08 112.05L158.105 112.15L158.13 112.25L158.155 112.349L158.18 112.449L158.204 112.549L158.229 112.648L158.254 112.748L158.279 112.847L158.303 112.946L158.328 113.046L158.353 113.145L158.377 113.244L158.402 113.343L158.426 113.442L158.451 113.541L158.476 113.64L158.5 113.739L158.525 113.837L158.549 113.936L158.574 114.035L158.598 114.133L158.623 114.232L158.647 114.33L158.672 114.429L158.696 114.527L158.72 114.625L158.745 114.723L158.769 114.821L158.794 114.919L158.818 115.017L158.842 115.115L158.867 115.213L158.891 115.311L158.915 115.408L158.939 115.506L158.964 115.603L158.988 115.701L159.012 115.798L159.036 115.895L159.06 115.993L159.084 116.09L159.109 116.187L159.133 116.284L159.157 116.381L159.181 116.478L159.205 116.575L159.229 116.671L159.253 116.768L159.277 116.865L159.301 116.961L159.325 117.058L159.349 117.154L159.373 117.25L159.397 117.346L159.421 117.443L159.445 117.539L159.468 117.635L159.492 117.731L159.516 117.826L159.54 117.922L159.564 118.018L159.587 118.114L159.611 118.209L159.635 118.305L159.659 118.4L159.682 118.495L159.706 118.591L159.73 118.686L159.753 118.781L159.777 118.876L159.801 118.971L159.824 119.066L159.848 119.16L159.871 119.255L159.895 119.35L159.918 119.444L159.942 119.539L159.965 119.633L159.989 119.728L160.012 119.822L160.035 119.916L160.059 120.01L160.082 120.104L160.106 120.198L160.129 120.292L160.152 120.386L160.175 120.479L160.199 120.573L160.222 120.666L160.245 120.76L160.268 120.853L160.292 120.946L160.315 121.04L160.338 121.133L160.361 121.226L160.384 121.319L160.407 121.412L160.43 121.504L160.453 121.597L160.476 121.69L160.499 121.782L160.522 121.875L160.545 121.967L160.568 122.059L160.591 122.152L160.614 122.244L160.637 122.336L160.66 122.428L160.683 122.52L160.705 122.611L160.728 122.703L160.751 122.795L160.774 122.886L160.796 122.978L160.819 123.069L160.842 123.16L160.864 123.252L160.887 123.343L160.91 123.434L160.932 123.525L160.955 123.615L160.977 123.706L161 123.797L161.023 123.887L161.045 123.978L161.067 124.068L161.09 124.159L161.112 124.249L161.135 124.339L161.157 124.429L161.179 124.519L161.202 124.609L161.224 124.699L161.246 124.788L161.269 124.878L161.291 124.967L161.313 125.057L161.335 125.146L161.358 125.235L161.38 125.325L161.402 125.414L161.424 125.503L161.446 125.591L161.468 125.68L161.49 125.769L161.512 125.857L161.534 125.946L161.556 126.034L161.578 126.123L161.6 126.211L161.622 126.299L161.644 126.387L161.666 126.475L161.687 126.563L161.709 126.651L161.731 126.738L161.753 126.826L161.775 126.913L161.796 127.001L161.818 127.088L161.84 127.175L161.861 127.262L161.883 127.349L161.905 127.436L161.926 127.523L161.948 127.61L161.969 127.696L161.991 127.783L162.012 127.869L162.034 127.956L162.055 128.042L162.076 128.128L162.098 128.214L162.119 128.3L162.141 128.386L162.162 128.472L162.183 128.557L162.204 128.643L162.226 128.728L162.247 128.814L162.268 128.899L162.289 128.984L162.31 129.069L162.331 129.154L162.353 129.239L162.374 129.324L162.395 129.408L162.416 129.493L162.437 129.577L162.458 129.662L162.479 129.746L162.499 129.83L162.52 129.914L162.541 129.998L162.562 130.082L162.583 130.166L162.604 130.249L162.624 130.333L162.645 130.416L162.666 130.499L162.687 130.583L162.707 130.666L162.728 130.749L162.748 130.832L162.769 130.915L162.79 130.997L162.81 131.08L162.831 131.162L162.851 131.245L162.872 131.327L162.892 131.409L162.912 131.491L162.933 131.573L162.953 131.655L162.973 131.737L162.994 131.819L163.014 131.9L163.034 131.982L163.054 132.063L163.075 132.144L163.095 132.225L163.115 132.306L163.135 132.387L163.155 132.468L163.175 132.549L163.195 132.629L163.215 132.71L163.235 132.79L163.255 132.87L163.275 132.95L163.295 133.031L163.315 133.11L163.335 133.19L163.354 133.27L163.374 133.35L163.394 133.429L163.414 133.508L163.433 133.588L163.453 133.667L163.473 133.746L163.492 133.825L163.512 133.904L163.532 133.982L163.551 134.061L163.571 134.139L163.59 134.218L163.61 134.296L163.629 134.374L163.648 134.452L163.668 134.53L163.687 134.608L163.706 134.686L163.726 134.763L163.745 134.841L163.764 134.918L163.783 134.995L163.802 135.073L163.822 135.15L163.841 135.226L163.86 135.303L163.879 135.38L163.898 135.456L163.917 135.533L163.936 135.609L163.955 135.685L163.974 135.762L163.993 135.838L164.011 135.913L164.03 135.989L164.049 136.065L164.068 136.14L164.087 136.216L164.105 136.291L164.124 136.366L164.143 136.441L164.161 136.516L164.18 136.591L164.198 136.666L164.217 136.74L164.235 136.815L164.254 136.889L164.272 136.963L164.291 137.037L164.309 137.111L164.328 137.185L164.346 137.259L164.364 137.332L164.382 137.406L164.401 137.479L164.419 137.552L164.437 137.625L164.455 137.699L164.473 137.771L164.491 137.844L164.509 137.917L164.527 137.989L164.545 138.062L164.563 138.134L164.581 138.206L164.599 138.278L164.617 138.35L164.635 138.422L164.653 138.493L164.671 138.565L164.688 138.636L164.706 138.708L164.724 138.779L164.741 138.85L164.759 138.921L164.777 138.992L164.794 139.062L164.812 139.133L164.829 139.203L164.847 139.273L164.864 139.344L164.881 139.414L164.899 139.484L164.916 139.553L164.933 139.623L164.951 139.692L164.968 139.762L164.985 139.831L165.002 139.9L165.02 139.969L165.037 140.038L165.054 140.107L165.071 140.176L165.088 140.244L165.105 140.312L165.122 140.381L165.139 140.449L165.156 140.517L165.172 140.585L165.189 140.652L165.206 140.72L165.223 140.787L165.24 140.855L165.256 140.922L165.273 140.989L165.29 141.056L165.306 141.123L165.323 141.189L165.339 141.256L165.356 141.322L165.372 141.389L165.389 141.455L165.405 141.521L165.422 141.587L165.438 141.652L165.454 141.718L165.47 141.784L165.487 141.849L165.503 141.914L165.519 141.979L165.535 142.044L165.551 142.109L165.567 142.174L165.583 142.238L165.599 142.303L165.615 142.367L165.631 142.431L165.647 142.495L165.663 142.559L165.679 142.623L165.695 142.686L165.711 142.75L165.726 142.813L165.742 142.876L165.758 142.939L165.773 143.002L165.789 143.065L165.804 143.128L165.82 143.19L165.836 143.252L165.851 143.315L165.866 143.377L165.882 143.439L165.897 143.5L165.913 143.562L165.928 143.624L165.943 143.685L165.958 143.746L165.973 143.807L165.989 143.868L166.004 143.929L166.019 143.99L166.034 144.051L166.049 144.111L166.064 144.171L166.079 144.231L166.094 144.291L166.109 144.351L166.123 144.411L166.138 144.47L166.153 144.53L166.168 144.589L166.182 144.648L166.197 144.707L166.212 144.766L166.226 144.825L166.241 144.883L166.255 144.942L166.27 145L166.284 145.058L166.299 145.116L166.313 145.174L166.327 145.232L166.342 145.289L166.356 145.347L166.37 145.404L166.384 145.461L166.399 145.518L166.413 145.575L166.427 145.632L166.441 145.688L166.455 145.745L166.469 145.801L166.483 145.857L166.497 145.913L166.511 145.969L166.524 146.024L166.538 146.08L166.552 146.135L166.566 146.19L166.579 146.245L166.593 146.3L166.607 146.355L166.62 146.41L166.634 146.464L166.647 146.519L166.661 146.573L166.674 146.627L166.688 146.681L166.701 146.734L166.714 146.788L166.728 146.841L166.741 146.895L166.754 146.948L166.767 147.001L166.78 147.054L166.793 147.106L166.806 147.159L166.819 147.211C167.57 150.232 164.817 153.205 161.627 152.815C147.899 151.135 123.459 149.959 101.156 152.104C97.2473 152.481 93.3311 152.966 89.5142 153.44C87.3316 153.711 85.1814 153.978 83.0837 154.218C77.2906 154.88 71.8661 155.342 67.0788 155.158C62.2853 154.973 58.214 154.142 55.0791 152.284C51.9791 150.447 49.725 147.566 48.618 143.112L48.6085 143.073L48.5991 143.036L48.5898 142.998L48.5806 142.961L48.5714 142.924L48.5623 142.888L48.5533 142.851L48.5443 142.815L48.5354 142.78L48.5266 142.744L48.5179 142.709L48.5092 142.674L48.5006 142.639L48.4921 142.605L48.4837 142.571L48.4753 142.537L48.467 142.504L48.4587 142.471L48.4505 142.438L48.4424 142.405L48.4344 142.373L48.4264 142.341L48.4185 142.309L48.4106 142.277L48.4028 142.246L48.3951 142.215L48.3874 142.184L48.3798 142.153L48.3723 142.123L48.3648 142.093L48.3574 142.063L48.3501 142.034L48.3428 142.004L48.3356 141.975L48.3284 141.947L48.3213 141.918L48.3143 141.89L48.3073 141.862L48.3004 141.834L48.2935 141.806L48.2867 141.779L48.2799 141.751L48.2732 141.725L48.2666 141.698L48.26 141.671L48.2535 141.645L48.247 141.619L48.2406 141.593L48.2343 141.568L48.228 141.542L48.2217 141.517L48.2155 141.492L48.2094 141.468L48.2033 141.443L48.1972 141.419L48.1913 141.395L48.1853 141.371L48.1794 141.347L48.1736 141.324L48.1678 141.3L48.1621 141.277L48.1564 141.254L48.1508 141.232L48.1452 141.209L48.1396 141.187L48.1341 141.165L48.1287 141.143L48.1233 141.121L48.1179 141.1L48.1126 141.078L48.1073 141.057L48.1021 141.036L48.097 141.015L48.0918 140.995L48.0867 140.974L48.0817 140.954L48.0767 140.934L48.0717 140.914L48.0668 140.894L48.0619 140.874L48.0571 140.855L48.0523 140.836L48.0476 140.816L48.0428 140.798L48.0382 140.779L48.0335 140.76L48.0289 140.742L48.0244 140.723L48.0198 140.705L48.0154 140.687L48.0109 140.669L48.0065 140.651L48.0021 140.634L47.9978 140.616L47.9935 140.599L47.9892 140.582L47.985 140.565L47.9807 140.548L47.9766 140.531L47.9724 140.514L47.9683 140.498L47.9643 140.481L47.9602 140.465L47.9562 140.449L47.9522 140.433L47.9483 140.417L47.9443 140.401L47.9405 140.386L47.9366 140.37L47.9328 140.355L47.9289 140.339L47.9252 140.324L47.9214 140.309L47.9177 140.294L47.914 140.279L47.9103 140.264L47.9067 140.25L47.9031 140.235L47.8995 140.221L47.8959 140.206L47.8923 140.192L47.8888 140.178L47.8853 140.164L47.8818 140.15L47.8784 140.136L47.8749 140.122L47.8715 140.108L47.8681 140.095L47.8647 140.081L47.8614 140.067L47.8581 140.054L47.8547 140.041L47.8514 140.027L47.8482 140.014L47.8449 140.001L47.8417 139.988L47.8384 139.975L47.8352 139.962L47.832 139.949L47.8289 139.937L47.8257 139.924L47.8225 139.911L47.8194 139.899L47.8163 139.886L47.8132 139.874L47.8101 139.861L47.807 139.849L47.8039 139.836L47.8009 139.824L47.7978 139.812L47.7948 139.8L47.7918 139.787L47.7888 139.775L47.7858 139.763L47.7828 139.751L47.7798 139.739L47.7768 139.727L47.7738 139.715L47.7709 139.703L47.7679 139.691L47.765 139.68L47.762 139.668L47.7591 139.656L47.7562 139.644L47.7532 139.632L47.7503 139.621L47.7474 139.609L47.7445 139.597L47.7416 139.585L47.7387 139.574L47.7358 139.562L47.7329 139.55L47.73 139.539L47.7271 139.527L47.7242 139.515L47.7213 139.504L47.7184 139.492L47.7155 139.48L47.7126 139.469L47.7097 139.457L47.7068 139.445L47.7039 139.434L47.701 139.422L47.698 139.41L47.6951 139.399L47.6922 139.387L47.6893 139.375L47.6864 139.363L47.6834 139.351L47.6805 139.34L47.6775 139.328L47.6746 139.316L47.6716 139.304L47.6687 139.292L47.6657 139.28L47.6627 139.268L47.6597 139.256L47.6567 139.244L47.6537 139.232L47.6507 139.22L47.6476 139.207L47.6446 139.195L47.6415 139.183L47.6385 139.171L47.6354 139.158L47.6323 139.146L47.6292 139.133L47.6261 139.121L47.623 139.108L47.6198 139.096L47.6167 139.083L47.6135 139.07L47.6103 139.057L47.6071 139.044L47.6039 139.031L47.6006 139.018L47.5974 139.005L47.5941 138.992L47.5908 138.979L47.5875 138.965L47.5842 138.952L47.5808 138.939L47.5774 138.925L47.574 138.911L47.5706 138.898L47.5672 138.884L47.5637 138.87L47.5603 138.856L47.5568 138.842L47.5533 138.828L47.5497 138.813L47.5461 138.799L47.5426 138.785L47.5389 138.77L47.5353 138.755L47.5316 138.741L47.5279 138.726L47.5242 138.711L47.5205 138.696L47.5167 138.681L47.5129 138.665L47.5091 138.65L47.5052 138.634L47.5013 138.619L47.4974 138.603L47.4935 138.587L47.4895 138.571L47.4855 138.555L47.4814 138.539L47.4774 138.522L47.4733 138.506L47.4692 138.489L47.465 138.473L47.4608 138.456L47.4566 138.439L47.4523 138.421L47.448 138.404L47.4437 138.387L47.4393 138.369L47.4349 138.351L47.4304 138.334L47.426 138.316L47.4214 138.297L47.4169 138.279L47.4123 138.261L47.4077 138.242L47.403 138.223L47.3983 138.204L47.3936 138.185L47.3888 138.166L47.3839 138.146L47.3791 138.127L47.3742 138.107L47.3692 138.087L47.3642 138.067L47.3592 138.047L47.3541 138.026L47.349 138.006L47.3438 137.985L47.3386 137.964L47.3334 137.943L47.3281 137.922L47.3227 137.9L47.3173 137.878L47.3119 137.857L47.3064 137.834L47.3009 137.812L47.2953 137.79L47.2897 137.767L47.284 137.744L47.2783 137.721L47.2725 137.698L47.2667 137.675L47.2608 137.651L47.2549 137.627L47.2489 137.603L47.2429 137.579L47.2368 137.554L47.2306 137.53L47.2245 137.505L47.2182 137.48L47.2119 137.454L47.2056 137.429L47.1992 137.403L47.1927 137.377L47.1862 137.351L47.1796 137.325L47.173 137.298L47.1663 137.271L47.1596 137.244L47.1528 137.217L47.146 137.189L47.139 137.161L47.1321 137.133L47.125 137.105L47.118 137.076L47.1108 137.048L47.1036 137.019L47.0963 136.989L47.089 136.96L47.0816 136.93L47.0741 136.9L47.0666 136.87L47.059 136.839L47.0514 136.809L47.0437 136.778L47.0359 136.746L47.0281 136.715L47.0202 136.683L47.0122 136.651L47.0042 136.619L46.9961 136.586L46.9879 136.553L46.9797 136.52L46.9714 136.486L46.963 136.453L46.9545 136.419L46.946 136.385L46.9375 136.35L46.9288 136.315L46.9201 136.28L46.9113 136.245L46.9024 136.209L46.8935 136.173L46.8845 136.137L46.8754 136.1L46.8663 136.064L46.857 136.027L46.8477 135.989L46.8384 135.951L46.8289 135.913L46.8194 135.875L46.8098 135.836L46.8001 135.798L46.7904 135.758L46.7805 135.719L46.7706 135.679L46.7607 135.639L46.7506 135.598L46.7405 135.557L46.7302 135.516L46.7199 135.475L46.7096 135.433L46.6991 135.391L46.6886 135.349L46.678 135.306L46.6673 135.263L46.6565 135.22L46.6456 135.176L46.6347 135.132L46.6236 135.087L46.6125 135.043L46.6013 134.998L46.59 134.952L46.5787 134.906L46.5672 134.86L46.5557 134.814L46.544 134.767L46.5323 134.72L46.5205 134.673L46.5086 134.625L46.4967 134.577L46.4846 134.528L46.4724 134.479L46.4602 134.43L46.4479 134.38L46.4355 134.33L46.4229 134.28L46.4103 134.229L46.3976 134.178L46.3849 134.127L46.372 134.075L46.359 134.023L46.3459 133.97L46.3328 133.917L46.3195 133.864L46.3062 133.81L46.2928 133.756L46.2792 133.702L46.2656 133.647L46.2519 133.592L46.238 133.536L46.2241 133.48L46.2101 133.424L46.196 133.367L46.1818 133.31L46.1675 133.252L46.153 133.194L46.1385 133.136L46.1239 133.077L46.1092 133.018L46.0944 132.958L46.0795 132.898L46.0645 132.838L46.0493 132.777L46.0341 132.716L46.0188 132.654L46.0034 132.592L45.9878 132.529L45.9722 132.466L45.9565 132.403L45.9406 132.339L45.9247 132.275L45.9086 132.211L45.8925 132.146L45.8762 132.08L45.8598 132.014L45.8433 131.948L45.8267 131.881L45.81 131.814L45.7932 131.746L45.7763 131.678L45.7593 131.61L45.7421 131.541L45.7249 131.471L45.7075 131.402L45.6901 131.331L45.6725 131.26L45.6548 131.189L45.637 131.118L45.6191 131.046L45.601 130.973L45.5829 130.9L45.5646 130.826L45.5462 130.753L45.5277 130.678L45.5091 130.603L45.4904 130.528L45.4715 130.452L45.4526 130.376L45.4335 130.299L45.4143 130.222L45.395 130.144L45.3756 130.066L45.356 129.987L45.3363 129.908L45.3166 129.828L45.2966 129.748L45.2766 129.668L45.2565 129.587L45.2362 129.505L45.2158 129.423L45.1953 129.34L45.1746 129.257L45.1538 129.174L45.133 129.09L45.1119 129.005L45.0908 128.92L45.0695 128.835L45.0481 128.748L45.0266 128.662L45.005 128.575L44.9832 128.487L44.9613 128.399L44.9393 128.311L44.9171 128.221L44.8948 128.132L44.8724 128.042L44.8499 127.951L44.8272 127.86L44.8044 127.768L44.7815 127.676L44.7584 127.583L44.7352 127.489L44.7119 127.396L44.6884 127.301L44.6648 127.206L44.6411 127.111L44.6173 127.015L44.5933 126.918L44.5691 126.821L44.5449 126.724L44.5205 126.625L44.4959 126.527L44.4713 126.427L44.4465 126.328L44.4215 126.227L44.3964 126.126L44.3712 126.025L44.3459 125.923L44.3204 125.82L44.2947 125.717L44.2689 125.613L44.243 125.509L44.217 125.404L44.1908 125.299L44.1644 125.193L44.1379 125.086L44.1113 124.979L44.0845 124.871L44.0576 124.763L44.0306 124.654C42.9316 120.233 43.7296 116.379 45.8398 112.91C47.9676 109.412 51.4445 106.284 55.7258 103.406C62.1491 99.0878 70.1987 95.4441 77.8601 91.9761C80.4417 90.8076 82.9791 89.659 85.3954 88.5113C105.487 78.9681 126.323 64.6901 138.333 56.2105C140.741 54.5104 144.087 55.7499 144.797 58.6037L144.811 58.6599L144.825 58.7162L144.839 58.7728L144.853 58.8296L144.867 58.8866L144.881 58.9437L144.896 59.0011L144.91 59.0586L144.924 59.1163L144.939 59.1742L144.953 59.2323L144.967 59.2906L144.982 59.3491L144.997 59.4078L145.011 59.4666L145.026 59.5257L145.041 59.5849L145.055 59.6443L145.07 59.7039L145.085 59.7637L145.1 59.8237L145.115 59.8839L145.13 59.9442L145.145 60.0047L145.16 60.0655L145.175 60.1264L145.19 60.1874L145.206 60.2487L145.221 60.3102L145.236 60.3718L145.252 60.4336L145.267 60.4956L145.282 60.5578L145.298 60.6202L145.313 60.6827L145.329 60.7454L145.345 60.8084L145.36 60.8714L145.376 60.9347L145.392 60.9982L145.408 61.0618L145.424 61.1256L145.439 61.1896L145.455 61.2537L145.471 61.3181L145.487 61.3826L145.503 61.4473L145.52 61.5121L145.536 61.5772L145.552 61.6424L145.568 61.7078L145.585 61.7734L145.601 61.8391L145.617 61.9051L145.634 61.9712L145.65 62.0374L145.667 62.1039L145.683 62.1705L145.7 62.2373L145.716 62.3043L145.733 62.3714L145.75 62.4387L145.767 62.5062L145.783 62.5738L145.8 62.6417L145.817 62.7097L145.834 62.7778L145.851 62.8462L145.868 62.9147L145.885 62.9833L145.902 63.0522L145.92 63.1212L145.937 63.1904L145.954 63.2597L145.971 63.3293L145.989 63.3989L146.006 63.4688L146.023 63.5388L146.041 63.609L146.058 63.6793L146.076 63.7499L146.093 63.8205L146.111 63.8914L146.129 63.9624L146.146 64.0336L146.164 64.1049L146.182 64.1764L146.2 64.2481L146.217 64.3199L146.235 64.3919L146.253 64.4641L146.271 64.5364L146.289 64.6088L146.307 64.6815L146.325 64.7543L146.344 64.8272L146.362 64.9004L146.38 64.9736L146.398 65.0471L146.416 65.1207L146.435 65.1944L146.453 65.2684L146.472 65.3424L146.49 65.4167L146.509 65.4911L146.527 65.5656L146.546 65.6403L146.564 65.7152L146.583 65.7902L146.602 65.8654L146.62 65.9407L146.639 66.0162L146.658 66.0918L146.677 66.1676L146.696 66.2435L146.714 66.3196L146.733 66.3959L146.752 66.4723L146.771 66.5489L146.791 66.6256L146.81 66.7024L146.829 66.7795L146.848 66.8566L146.867 66.934L146.886 67.0114L146.906 67.089L146.925 67.1668L146.944 67.2447L146.964 67.3228L146.983 67.401L147.003 67.4794L147.022 67.5579L147.042 67.6366L147.061 67.7154L147.081 67.7943L147.101 67.8734L147.12 67.9527L147.14 68.0321L147.16 68.1116L147.18 68.1913L147.2 68.2712L147.219 68.3512L147.239 68.4313L147.259 68.5115L147.279 68.592L147.299 68.6725L147.319 68.7532L147.339 68.8341L147.36 68.9151L147.38 68.9962L147.4 69.0775L147.42 69.1589L147.44 69.2404L147.461 69.3221L147.481 69.404L147.501 69.4859L147.522 69.568L147.542 69.6503L147.563 69.7327L147.583 69.8152L147.604 69.8979L147.624 69.9807L147.645 70.0637L147.666 70.1468L147.686 70.23L147.707 70.3133L147.728 70.3968L147.749 70.4805L147.769 70.5642L147.79 70.6481L147.811 70.7322L147.832 70.8164L147.853 70.9007L147.874 70.9851L147.895 71.0697L147.916 71.1544L147.937 71.2392L147.958 71.3242L147.979 71.4093L148.001 71.4946L148.022 71.5799L148.043 71.6654L148.064 71.7511L148.086 71.8369L148.107 71.9228L148.128 72.0088L148.15 72.0949L148.171 72.1812L148.193 72.2676L148.214 72.3542L148.236 72.4409L148.257 72.5277L148.279 72.6146L148.301 72.7016L148.322 72.7888L148.344 72.8761L148.366 72.9636L148.388 73.0511L148.409 73.1388L148.431 73.2266L148.453 73.3146L148.475 73.4026L148.497 73.4908L148.519 73.5791L148.541 73.6676L148.563 73.7561L148.585 73.8448L148.607 73.9336L148.629 74.0226L148.651 74.1116L148.673 74.2008L148.695 74.2901L148.718 74.3795L148.74 74.469L148.762 74.5587L148.785 74.6485L148.807 74.7383L148.829 74.8284L148.852 74.9185L148.874 75.0087L148.897 75.0991L148.919 75.1896L148.942 75.2802L148.964 75.3709L148.987 75.4618L149.009 75.5527L149.032 75.6438L149.055 75.735L149.077 75.8263L149.1 75.9177L149.123 76.0092L149.146 76.1009L149.168 76.1927L149.191 76.2845L149.214 76.3765L149.237 76.4686L149.26 76.5608L149.283 76.6532L149.306 76.7456L149.329 76.8382L149.352 76.9308L149.375 77.0236L149.398 77.1165L149.421 77.2095L149.444 77.3026L149.467 77.3958L149.491 77.4892L149.514 77.5826L149.537 77.6761L149.56 77.7698L149.584 77.8635L149.607 77.9574L149.63 78.0514L149.654 78.1455L149.677 78.2397L149.701 78.334L149.724 78.4284L149.748 78.5229L149.771 78.6175L149.795 78.7122L149.818 78.807L149.842 78.902L149.865 78.997L149.889 79.0921L149.913 79.1874L149.936 79.2827L149.96 79.3782L149.984 79.4737L150.008 79.5694L150.031 79.6651L150.055 79.761L150.079 79.8569L150.103 79.953L150.127 80.0491L150.151 80.1454L150.175 80.2418L150.199 80.3382L150.223 80.4348L150.247 80.5314L150.271 80.6282L150.295 80.725L150.319 80.822L150.343 80.919L150.367 81.0162L150.391 81.1134L150.416 81.2107L150.44 81.3082L150.464 81.4057L150.488 81.5033L150.513 81.601L150.537 81.6988L150.561 81.7967L150.586 81.8947L150.61 81.9928L150.634 82.091L150.659 82.1893L150.683 82.2877L150.708 82.3861L150.732 82.4847L150.757 82.5833L150.781 82.6821L150.806 82.7809L150.83 82.8798L150.855 82.9788L150.88 83.0779L150.904 83.1771L150.929 83.2764L150.954 83.3758L150.978 83.4752L151.003 83.5748L151.028 83.6744L151.053 83.7741L151.077 83.8739L151.102 83.9738L151.127 84.0738L151.152 84.1739L151.177 84.274L151.202 84.3743L151.227 84.4746L151.252 84.575L151.277 84.6755L151.302 84.7761L151.327 84.8767L151.352 84.9775L151.377 85.0783L151.402 85.1792L151.427 85.2802L151.452 85.3813L151.477 85.4824L151.502 85.5837L151.528 85.685L151.553 85.7864L151.578 85.8879L151.603 85.9894L151.629 86.0911L151.654 86.1928L151.679 86.2946L151.704 86.3965L151.73 86.4984L151.755 86.6004L151.78 86.7026L151.806 86.8047L151.831 86.907L151.857 87.0094L151.882 87.1118L151.908 87.2143L151.933 87.3168L151.959 87.4195L151.984 87.5222L152.01 87.625L152.035 87.7279L152.061 87.8308L152.087 87.9338L152.112 88.0369L152.138 88.1401L152.163 88.2433L152.189 88.3466L152.215 88.45L152.241 88.5535L152.266 88.657L152.292 88.7606L152.318 88.8642L152.344 88.968L152.369 89.0718L152.395 89.1757L152.421 89.2796L152.447 89.3836L152.473 89.4877L152.499 89.5919L152.525 89.6961L152.55 89.8004L152.576 89.9047L152.602 90.0091L152.628 90.1136L152.654 90.2182L152.68 90.3228L152.706 90.4275L152.732 90.5322L152.758 90.637L152.784 90.7419L152.811 90.8469L152.837 90.9519L152.863 91.0569L152.889 91.1621L152.915 91.2673L152.941 91.3725L152.967 91.4778L152.994 91.5832L153.02 91.6887L153.046 91.7942L153.072 91.8997L153.098 92.0054L153.125 92.1111L153.151 92.2168L153.177 92.3226L153.204 92.4285L153.23 92.5344L153.256 92.6404L153.283 92.7464L153.309 92.8525L153.335 92.9587L153.362 93.0649L153.388 93.1712L153.415 93.2775L153.441 93.3839L153.468 93.4903L153.494 93.5968L153.52 93.7033L153.547 93.8099L153.573 93.9166L153.6 94.0233L153.627 94.1301L153.653 94.2369L153.68 94.3438L153.706 94.4507L153.733 94.5577L153.759 94.6647L153.786 94.7718L153.813 94.8789L153.839 94.9861L153.866 95.0933L153.893 95.2006L153.919 95.3079L153.946 95.4153L153.973 95.5228L153.999 95.6302L154.026 95.7378L154.053 95.8453L154.08 95.953L154.106 96.0606L154.133 96.1684L154.16 96.2761L154.187 96.3839L154.214 96.4918L154.24 96.5997L154.267 96.7077L154.294 96.8157L154.321 96.9237L154.348 97.0318L154.375 97.1399L154.402 97.2481L154.428 97.3563L154.455 97.4646L154.482 97.5729L154.509 97.6812L154.536 97.7896L154.563 97.8981L154.59 98.0065L154.617 98.115L154.644 98.2236L154.671 98.3322L154.698 98.4408L154.725 98.5495L154.752 98.6582L154.779 98.767L154.806 98.8758L154.833 98.9846L154.86 99.0935L154.887 99.2024L154.914 99.3113L154.941 99.4203L154.968 99.5293L154.996 99.6384L155.023 99.7475L155.05 99.8566L155.077 99.9658L155.104 100.075L155.131 100.184L155.158 100.293L155.186 100.403L155.213 100.512L155.24 100.621L155.267 100.731L155.294 100.84L155.322 100.95L155.349 101.059L155.376 101.169L155.403 101.278L155.43 101.388L155.458 101.498L155.485 101.607L155.512 101.717L155.539 101.827L155.567 101.936L155.594 102.046L155.621 102.156L155.649 102.266L155.676 102.376L155.703 102.486L155.731 102.595L155.758 102.705L155.785 102.815L155.813 102.925L155.84 103.035L155.867 103.145L155.895 103.255L155.922 103.366L155.949 103.476L155.977 103.586L156.004 103.696L156.031 103.806L156.059 103.916L156.086 104.027L156.114 104.137L156.141 104.247L156.168 104.357L156.196 104.468L156.223 104.578L156.251 104.688L156.278 104.799L156.306 104.909L156.333 105.02Z" fill="#390D0E" stroke="#390D0E" stroke-width="1.6875"/>
<path d="M71.0881 154.764C70.8758 153.308 71.9586 151.984 73.4278 151.902L88.2869 151.079C89.4444 151.015 90.4946 151.754 90.8256 152.865L106.085 204.075C106.503 205.478 105.634 206.939 104.202 207.241L82.109 211.903C80.6947 212.201 79.3221 211.244 79.1136 209.814L71.0881 154.764Z" fill="#390D0E" stroke="#390D0E" stroke-width="1.6875"/>
<path d="M67.2443 155.713C67.032 154.257 68.1148 152.933 69.5841 152.851L84.4432 152.028C85.6006 151.964 86.6508 152.703 86.9818 153.814L102.241 205.024C102.659 206.427 101.79 207.888 100.358 208.19L78.2652 212.852C76.8509 213.151 75.4783 212.193 75.2698 210.763L67.2443 155.713Z" fill="#FBF2F3" stroke="#390D0E" stroke-width="1.6875"/>
<mask id="path-4-inside-1_33_59067" fill="white">
<path fill-rule="evenodd" clip-rule="evenodd" d="M150.665 123.173C148.863 117.679 147.162 111.783 145.629 105.613C144.095 99.4422 142.837 93.4355 141.858 87.7362C143.181 86.7316 144.682 85.9921 146.332 85.5819C154.461 83.5615 163.132 90.296 165.699 100.624C168.266 110.951 163.757 120.962 155.628 122.982C153.978 123.392 152.305 123.441 150.665 123.173Z"/>
</mask>
<path fill-rule="evenodd" clip-rule="evenodd" d="M150.665 123.173C148.863 117.679 147.162 111.783 145.629 105.613C144.095 99.4422 142.837 93.4355 141.858 87.7362C143.181 86.7316 144.682 85.9921 146.332 85.5819C154.461 83.5615 163.132 90.296 165.699 100.624C168.266 110.951 163.757 120.962 155.628 122.982C153.978 123.392 152.305 123.441 150.665 123.173Z" fill="#FBF2F3"/>
<path d="M150.665 123.173L149.062 123.699L149.381 124.673L150.393 124.838L150.665 123.173ZM141.858 87.7362L140.837 86.3922L140.021 87.0119L140.195 88.0219L141.858 87.7362ZM152.269 122.647C150.48 117.194 148.79 111.338 147.266 105.206L143.991 106.02C145.534 112.229 147.246 118.165 149.062 123.699L152.269 122.647ZM147.266 105.206C145.742 99.074 144.493 93.1077 143.521 87.4504L140.195 88.0219C141.181 93.7633 142.447 99.8105 143.991 106.02L147.266 105.206ZM142.878 89.0801C144.027 88.2078 145.321 87.5721 146.739 87.2196L145.925 83.9443C144.043 84.4121 142.335 85.2553 140.837 86.3922L142.878 89.0801ZM146.739 87.2196C153.62 85.5094 161.623 91.2205 164.061 101.031L167.337 100.217C164.641 89.3715 155.302 81.6137 145.925 83.9443L146.739 87.2196ZM164.061 101.031C166.499 110.841 162.102 119.634 155.221 121.344L156.035 124.62C165.412 122.289 170.032 111.062 167.337 100.217L164.061 101.031ZM155.221 121.344C153.803 121.697 152.362 121.741 150.938 121.508L150.393 124.838C152.248 125.142 154.152 125.088 156.035 124.62L155.221 121.344Z" fill="#390D0E" mask="url(#path-4-inside-1_33_59067)"/>
<path d="M151.622 105.02L151.648 105.123L151.674 105.227L151.699 105.331L151.725 105.434L151.751 105.538L151.777 105.641L151.802 105.745L151.828 105.848L151.854 105.951L151.879 106.055L151.905 106.158L151.931 106.261L151.956 106.364L151.982 106.467L152.008 106.57L152.033 106.673L152.059 106.776L152.084 106.879L152.11 106.982L152.135 107.084L152.161 107.187L152.186 107.29L152.212 107.392L152.237 107.495L152.263 107.597L152.288 107.7L152.314 107.802L152.339 107.904L152.365 108.007L152.39 108.109L152.415 108.211L152.441 108.313L152.466 108.415L152.491 108.517L152.517 108.619L152.542 108.721L152.567 108.823L152.593 108.925L152.618 109.026L152.643 109.128L152.668 109.23L152.694 109.331L152.719 109.433L152.744 109.534L152.769 109.635L152.795 109.737L152.82 109.838L152.845 109.939L152.87 110.04L152.895 110.141L152.92 110.242L152.945 110.343L152.97 110.444L152.995 110.545L153.02 110.646L153.045 110.746L153.07 110.847L153.095 110.948L153.12 111.048L153.145 111.149L153.17 111.249L153.195 111.349L153.22 111.45L153.245 111.55L153.27 111.65L153.295 111.75L153.32 111.85L153.345 111.95L153.369 112.05L153.394 112.15L153.419 112.25L153.444 112.349L153.469 112.449L153.493 112.549L153.518 112.648L153.543 112.748L153.568 112.847L153.592 112.946L153.617 113.046L153.642 113.145L153.666 113.244L153.691 113.343L153.715 113.442L153.74 113.541L153.765 113.64L153.789 113.739L153.814 113.837L153.838 113.936L153.863 114.035L153.887 114.133L153.912 114.232L153.936 114.33L153.961 114.429L153.985 114.527L154.009 114.625L154.034 114.723L154.058 114.821L154.083 114.919L154.107 115.017L154.131 115.115L154.156 115.213L154.18 115.311L154.204 115.408L154.228 115.506L154.253 115.603L154.277 115.701L154.301 115.798L154.325 115.895L154.349 115.993L154.374 116.09L154.398 116.187L154.422 116.284L154.446 116.381L154.47 116.478L154.494 116.575L154.518 116.671L154.542 116.768L154.566 116.865L154.59 116.961L154.614 117.058L154.638 117.154L154.662 117.25L154.686 117.346L154.71 117.443L154.734 117.539L154.758 117.635L154.781 117.731L154.805 117.826L154.829 117.922L154.853 118.018L154.877 118.114L154.9 118.209L154.924 118.305L154.948 118.4L154.971 118.495L154.995 118.591L155.019 118.686L155.042 118.781L155.066 118.876L155.09 118.971L155.113 119.066L155.137 119.16L155.16 119.255L155.184 119.35L155.207 119.444L155.231 119.539L155.254 119.633L155.278 119.728L155.301 119.822L155.325 119.916L155.348 120.01L155.371 120.104L155.395 120.198L155.418 120.292L155.441 120.386L155.465 120.479L155.488 120.573L155.511 120.666L155.534 120.76L155.557 120.853L155.581 120.946L155.604 121.04L155.627 121.133L155.65 121.226L155.673 121.319L155.696 121.412L155.719 121.504L155.742 121.597L155.765 121.69L155.788 121.782L155.811 121.875L155.834 121.967L155.857 122.059L155.88 122.152L155.903 122.244L155.926 122.336L155.949 122.428L155.972 122.52L155.994 122.611L156.017 122.703L156.04 122.795L156.063 122.886L156.085 122.978L156.108 123.069L156.131 123.16L156.154 123.252L156.176 123.343L156.199 123.434L156.221 123.525L156.244 123.615L156.267 123.706L156.289 123.797L156.312 123.887L156.334 123.978L156.357 124.068L156.379 124.159L156.401 124.249L156.424 124.339L156.446 124.429L156.469 124.519L156.491 124.609L156.513 124.699L156.535 124.788L156.558 124.878L156.58 124.967L156.602 125.057L156.624 125.146L156.647 125.235L156.669 125.325L156.691 125.414L156.713 125.503L156.735 125.591L156.757 125.68L156.779 125.769L156.801 125.857L156.823 125.946L156.845 126.034L156.867 126.123L156.889 126.211L156.911 126.299L156.933 126.387L156.955 126.475L156.977 126.563L156.998 126.651L157.02 126.738L157.042 126.826L157.064 126.913L157.085 127.001L157.107 127.088L157.129 127.175L157.15 127.262L157.172 127.349L157.194 127.436L157.215 127.523L157.237 127.61L157.258 127.696L157.28 127.783L157.301 127.869L157.323 127.956L157.344 128.042L157.366 128.128L157.387 128.214L157.408 128.3L157.43 128.386L157.451 128.472L157.472 128.557L157.493 128.643L157.515 128.728L157.536 128.814L157.557 128.899L157.578 128.984L157.599 129.069L157.621 129.154L157.642 129.239L157.663 129.324L157.684 129.408L157.705 129.493L157.726 129.577L157.747 129.662L157.768 129.746L157.789 129.83L157.809 129.914L157.83 129.998L157.851 130.082L157.872 130.166L157.893 130.249L157.913 130.333L157.934 130.416L157.955 130.499L157.976 130.583L157.996 130.666L158.017 130.749L158.038 130.832L158.058 130.915L158.079 130.997L158.099 131.08L158.12 131.162L158.14 131.245L158.161 131.327L158.181 131.409L158.201 131.491L158.222 131.573L158.242 131.655L158.263 131.737L158.283 131.819L158.303 131.9L158.323 131.982L158.344 132.063L158.364 132.144L158.384 132.225L158.404 132.306L158.424 132.387L158.444 132.468L158.464 132.549L158.484 132.629L158.504 132.71L158.524 132.79L158.544 132.87L158.564 132.95L158.584 133.031L158.604 133.11L158.624 133.19L158.644 133.27L158.663 133.35L158.683 133.429L158.703 133.508L158.723 133.588L158.742 133.667L158.762 133.746L158.781 133.825L158.801 133.904L158.821 133.982L158.84 134.061L158.86 134.139L158.879 134.218L158.899 134.296L158.918 134.374L158.937 134.452L158.957 134.53L158.976 134.608L158.995 134.686L159.015 134.763L159.034 134.841L159.053 134.918L159.072 134.995L159.092 135.073L159.111 135.15L159.13 135.226L159.149 135.303L159.168 135.38L159.187 135.456L159.206 135.533L159.225 135.609L159.244 135.685L159.263 135.762L159.282 135.838L159.301 135.913L159.319 135.989L159.338 136.065L159.357 136.14L159.376 136.216L159.394 136.291L159.413 136.366L159.432 136.441L159.45 136.516L159.469 136.591L159.487 136.666L159.506 136.74L159.525 136.815L159.543 136.889L159.561 136.963L159.58 137.037L159.598 137.111L159.617 137.185L159.635 137.259L159.653 137.332L159.671 137.406L159.69 137.479L159.708 137.552L159.726 137.625L159.744 137.699L159.762 137.771L159.78 137.844L159.798 137.917L159.816 137.989L159.834 138.062L159.852 138.134L159.87 138.206L159.888 138.278L159.906 138.35L159.924 138.422L159.942 138.493L159.96 138.565L159.977 138.636L159.995 138.708L160.013 138.779L160.03 138.85L160.048 138.921L160.066 138.992L160.083 139.062L160.101 139.133L160.118 139.203L160.136 139.273L160.153 139.344L160.17 139.414L160.188 139.484L160.205 139.553L160.223 139.623L160.24 139.692L160.257 139.762L160.274 139.831L160.291 139.9L160.309 139.969L160.326 140.038L160.343 140.107L160.36 140.176L160.377 140.244L160.394 140.312L160.411 140.381L160.428 140.449L160.445 140.517L160.462 140.585L160.478 140.652L160.495 140.72L160.512 140.787L160.529 140.855L160.545 140.922L160.562 140.989L160.579 141.056L160.595 141.123L160.612 141.189L160.628 141.256L160.645 141.322L160.661 141.389L160.678 141.455L160.694 141.521L160.711 141.587L160.727 141.652L160.743 141.718L160.76 141.784L160.776 141.849L160.792 141.914L160.808 141.979L160.824 142.044L160.84 142.109L160.856 142.174L160.873 142.238L160.889 142.303L160.904 142.367L160.92 142.431L160.936 142.495L160.952 142.559L160.968 142.623L160.984 142.686L161 142.75L161.015 142.813L161.031 142.876L161.047 142.939L161.062 143.002L161.078 143.065L161.094 143.128L161.109 143.19L161.125 143.252L161.14 143.315L161.155 143.377L161.171 143.439L161.186 143.5L161.202 143.562L161.217 143.624L161.232 143.685L161.247 143.746L161.263 143.807L161.278 143.868L161.293 143.929L161.308 143.99L161.323 144.051L161.338 144.111L161.353 144.171L161.368 144.231L161.383 144.291L161.398 144.351L161.413 144.411L161.427 144.47L161.442 144.53L161.457 144.589L161.472 144.648L161.486 144.707L161.501 144.766L161.515 144.825L161.53 144.883L161.544 144.942L161.559 145L161.573 145.058L161.588 145.116L161.602 145.174L161.617 145.232L161.631 145.289L161.645 145.347L161.659 145.404L161.674 145.461L161.688 145.518L161.702 145.575L161.716 145.632L161.73 145.688L161.744 145.745L161.758 145.801L161.772 145.857L161.786 145.913L161.8 145.969L161.814 146.024L161.827 146.08L161.841 146.135L161.855 146.19L161.868 146.245L161.882 146.3L161.896 146.355L161.909 146.41L161.923 146.464L161.936 146.519L161.95 146.573L161.963 146.627L161.977 146.681L161.99 146.734L162.003 146.788L162.017 146.841L162.03 146.895L162.043 146.948L162.056 147.001L162.069 147.054L162.082 147.106L162.095 147.159L162.108 147.211C162.859 150.232 160.106 153.205 156.916 152.815C143.188 151.135 118.748 149.959 96.4454 152.104C92.5363 152.481 88.6201 152.966 84.8033 153.44C82.6206 153.711 80.4705 153.978 78.3727 154.218C72.5796 154.88 67.1552 155.342 62.3678 155.158C57.5743 154.973 53.503 154.142 50.3681 152.284C47.2681 150.447 45.0141 147.566 43.907 143.112L43.8976 143.073L43.8882 143.036L43.8789 142.998L43.8696 142.961L43.8605 142.924L43.8514 142.888L43.8423 142.851L43.8334 142.815L43.8245 142.78L43.8157 142.744L43.807 142.709L43.7983 142.674L43.7897 142.639L43.7812 142.605L43.7727 142.571L43.7643 142.537L43.756 142.504L43.7478 142.471L43.7396 142.438L43.7315 142.405L43.7234 142.373L43.7154 142.341L43.7075 142.309L43.6997 142.277L43.6919 142.246L43.6842 142.215L43.6765 142.184L43.6689 142.153L43.6614 142.123L43.6539 142.093L43.6465 142.063L43.6391 142.034L43.6319 142.004L43.6246 141.975L43.6175 141.947L43.6104 141.918L43.6033 141.89L43.5963 141.862L43.5894 141.834L43.5826 141.806L43.5758 141.779L43.569 141.751L43.5623 141.725L43.5557 141.698L43.5491 141.671L43.5426 141.645L43.5361 141.619L43.5297 141.593L43.5233 141.568L43.517 141.542L43.5108 141.517L43.5046 141.492L43.4984 141.468L43.4923 141.443L43.4863 141.419L43.4803 141.395L43.4744 141.371L43.4685 141.347L43.4627 141.324L43.4569 141.3L43.4511 141.277L43.4455 141.254L43.4398 141.232L43.4342 141.209L43.4287 141.187L43.4232 141.165L43.4177 141.143L43.4123 141.121L43.407 141.1L43.4017 141.078L43.3964 141.057L43.3912 141.036L43.386 141.015L43.3809 140.995L43.3758 140.974L43.3708 140.954L43.3658 140.934L43.3608 140.914L43.3559 140.894L43.351 140.874L43.3462 140.855L43.3414 140.836L43.3366 140.816L43.3319 140.798L43.3272 140.779L43.3226 140.76L43.318 140.742L43.3134 140.723L43.3089 140.705L43.3044 140.687L43.3 140.669L43.2956 140.651L43.2912 140.634L43.2868 140.616L43.2825 140.599L43.2783 140.582L43.274 140.565L43.2698 140.548L43.2656 140.531L43.2615 140.514L43.2574 140.498L43.2533 140.481L43.2493 140.465L43.2453 140.449L43.2413 140.433L43.2373 140.417L43.2334 140.401L43.2295 140.386L43.2257 140.37L43.2218 140.355L43.218 140.339L43.2142 140.324L43.2105 140.309L43.2068 140.294L43.2031 140.279L43.1994 140.264L43.1957 140.25L43.1921 140.235L43.1885 140.221L43.1849 140.206L43.1814 140.192L43.1779 140.178L43.1744 140.164L43.1709 140.15L43.1674 140.136L43.164 140.122L43.1606 140.108L43.1572 140.095L43.1538 140.081L43.1505 140.067L43.1471 140.054L43.1438 140.041L43.1405 140.027L43.1372 140.014L43.134 140.001L43.1307 139.988L43.1275 139.975L43.1243 139.962L43.1211 139.949L43.1179 139.937L43.1148 139.924L43.1116 139.911L43.1085 139.899L43.1054 139.886L43.1022 139.874L43.0992 139.861L43.0961 139.849L43.093 139.836L43.09 139.824L43.0869 139.812L43.0839 139.8L43.0808 139.787L43.0778 139.775L43.0748 139.763L43.0718 139.751L43.0689 139.739L43.0659 139.727L43.0629 139.715L43.0599 139.703L43.057 139.691L43.054 139.68L43.0511 139.668L43.0482 139.656L43.0452 139.644L43.0423 139.632L43.0394 139.621L43.0365 139.609L43.0336 139.597L43.0307 139.585L43.0277 139.574L43.0248 139.562L43.0219 139.55L43.019 139.539L43.0161 139.527L43.0132 139.515L43.0103 139.504L43.0074 139.492L43.0045 139.48L43.0016 139.469L42.9987 139.457L42.9958 139.445L42.9929 139.434L42.99 139.422L42.9871 139.41L42.9842 139.399L42.9813 139.387L42.9783 139.375L42.9754 139.363L42.9725 139.351L42.9695 139.34L42.9666 139.328L42.9636 139.316L42.9607 139.304L42.9577 139.292L42.9547 139.28L42.9518 139.268L42.9488 139.256L42.9458 139.244L42.9428 139.232L42.9397 139.22L42.9367 139.207L42.9337 139.195L42.9306 139.183L42.9275 139.171L42.9245 139.158L42.9214 139.146L42.9183 139.133L42.9152 139.121L42.912 139.108L42.9089 139.096L42.9057 139.083L42.9025 139.07L42.8994 139.057L42.8961 139.044L42.8929 139.031L42.8897 139.018L42.8864 139.005L42.8832 138.992L42.8799 138.979L42.8765 138.965L42.8732 138.952L42.8699 138.939L42.8665 138.925L42.8631 138.911L42.8597 138.898L42.8563 138.884L42.8528 138.87L42.8493 138.856L42.8458 138.842L42.8423 138.828L42.8388 138.813L42.8352 138.799L42.8316 138.785L42.828 138.77L42.8244 138.755L42.8207 138.741L42.817 138.726L42.8133 138.711L42.8095 138.696L42.8058 138.681L42.802 138.665L42.7981 138.65L42.7943 138.634L42.7904 138.619L42.7865 138.603L42.7825 138.587L42.7786 138.571L42.7745 138.555L42.7705 138.539L42.7664 138.522L42.7623 138.506L42.7582 138.489L42.754 138.473L42.7498 138.456L42.7456 138.439L42.7414 138.421L42.7371 138.404L42.7327 138.387L42.7283 138.369L42.7239 138.351L42.7195 138.334L42.715 138.316L42.7105 138.297L42.706 138.279L42.7014 138.261L42.6967 138.242L42.6921 138.223L42.6874 138.204L42.6826 138.185L42.6778 138.166L42.673 138.146L42.6681 138.127L42.6632 138.107L42.6583 138.087L42.6533 138.067L42.6482 138.047L42.6432 138.026L42.638 138.006L42.6329 137.985L42.6277 137.964L42.6224 137.943L42.6171 137.922L42.6118 137.9L42.6064 137.878L42.6009 137.857L42.5955 137.834L42.5899 137.812L42.5843 137.79L42.5787 137.767L42.573 137.744L42.5673 137.721L42.5615 137.698L42.5557 137.675L42.5498 137.651L42.5439 137.627L42.5379 137.603L42.5319 137.579L42.5258 137.554L42.5197 137.53L42.5135 137.505L42.5073 137.48L42.501 137.454L42.4946 137.429L42.4882 137.403L42.4818 137.377L42.4753 137.351L42.4687 137.325L42.4621 137.298L42.4554 137.271L42.4487 137.244L42.4419 137.217L42.435 137.189L42.4281 137.161L42.4211 137.133L42.4141 137.105L42.407 137.076L42.3999 137.048L42.3927 137.019L42.3854 136.989L42.3781 136.96L42.3707 136.93L42.3632 136.9L42.3557 136.87L42.3481 136.839L42.3405 136.809L42.3328 136.778L42.325 136.746L42.3171 136.715L42.3092 136.683L42.3013 136.651L42.2932 136.619L42.2851 136.586L42.277 136.553L42.2687 136.52L42.2604 136.486L42.2521 136.453L42.2436 136.419L42.2351 136.385L42.2265 136.35L42.2179 136.315L42.2091 136.28L42.2004 136.245L42.1915 136.209L42.1826 136.173L42.1736 136.137L42.1645 136.1L42.1553 136.064L42.1461 136.027L42.1368 135.989L42.1274 135.951L42.118 135.913L42.1085 135.875L42.0989 135.836L42.0892 135.798L42.0794 135.758L42.0696 135.719L42.0597 135.679L42.0497 135.639L42.0397 135.598L42.0295 135.557L42.0193 135.516L42.009 135.475L41.9986 135.433L41.9882 135.391L41.9776 135.349L41.967 135.306L41.9563 135.263L41.9455 135.22L41.9347 135.176L41.9237 135.132L41.9127 135.087L41.9016 135.043L41.8904 134.998L41.8791 134.952L41.8677 134.906L41.8563 134.86L41.8447 134.814L41.8331 134.767L41.8214 134.72L41.8096 134.673L41.7977 134.625L41.7857 134.577L41.7737 134.528L41.7615 134.479L41.7493 134.43L41.7369 134.38L41.7245 134.33L41.712 134.28L41.6994 134.229L41.6867 134.178L41.6739 134.127L41.661 134.075L41.6481 134.023L41.635 133.97L41.6219 133.917L41.6086 133.864L41.5953 133.81L41.5818 133.756L41.5683 133.702L41.5546 133.647L41.5409 133.592L41.5271 133.536L41.5132 133.48L41.4992 133.424L41.485 133.367L41.4708 133.31L41.4565 133.252L41.4421 133.194L41.4276 133.136L41.413 133.077L41.3983 133.018L41.3835 132.958L41.3685 132.898L41.3535 132.838L41.3384 132.777L41.3232 132.716L41.3079 132.654L41.2924 132.592L41.2769 132.529L41.2613 132.466L41.2455 132.403L41.2297 132.339L41.2137 132.275L41.1977 132.211L41.1815 132.146L41.1653 132.08L41.1489 132.014L41.1324 131.948L41.1158 131.881L41.0991 131.814L41.0823 131.746L41.0654 131.678L41.0483 131.61L41.0312 131.541L41.014 131.471L40.9966 131.402L40.9791 131.331L40.9615 131.26L40.9438 131.189L40.926 131.118L40.9081 131.046L40.8901 130.973L40.8719 130.9L40.8537 130.826L40.8353 130.753L40.8168 130.678L40.7982 130.603L40.7795 130.528L40.7606 130.452L40.7417 130.376L40.7226 130.299L40.7034 130.222L40.6841 130.144L40.6646 130.066L40.6451 129.987L40.6254 129.908L40.6056 129.828L40.5857 129.748L40.5657 129.668L40.5455 129.587L40.5252 129.505L40.5048 129.423L40.4843 129.34L40.4637 129.257L40.4429 129.174L40.422 129.09L40.401 129.005L40.3799 128.92L40.3586 128.835L40.3372 128.748L40.3157 128.662L40.294 128.575L40.2723 128.487L40.2504 128.399L40.2283 128.311L40.2062 128.221L40.1839 128.132L40.1615 128.042L40.139 127.951L40.1163 127.86L40.0935 127.768L40.0705 127.676L40.0475 127.583L40.0243 127.489L40.001 127.396L39.9775 127.301L39.9539 127.206L39.9302 127.111L39.9063 127.015L39.8823 126.918L39.8582 126.821L39.8339 126.724L39.8095 126.625L39.785 126.527L39.7603 126.427L39.7355 126.328L39.7106 126.227L39.6855 126.126L39.6603 126.025L39.6349 125.923L39.6094 125.82L39.5838 125.717L39.558 125.613L39.5321 125.509L39.506 125.404L39.4798 125.299L39.4535 125.193L39.427 125.086L39.4004 124.979L39.3736 124.871L39.3467 124.763L39.3196 124.654C38.2206 120.233 39.0187 116.379 41.1289 112.91C43.2567 109.412 46.7336 106.284 51.0149 103.406C57.4382 99.0878 65.4878 95.4441 73.1492 91.9761C75.7307 90.8076 78.2681 89.659 80.6844 88.5113C100.776 78.9681 121.612 64.6901 133.623 56.2105C136.03 54.5104 139.377 55.7499 140.086 58.6037L140.1 58.6599L140.114 58.7162L140.128 58.7728L140.142 58.8296L140.156 58.8866L140.17 58.9437L140.185 59.0011L140.199 59.0586L140.213 59.1163L140.228 59.1742L140.242 59.2323L140.257 59.2906L140.271 59.3491L140.286 59.4078L140.3 59.4666L140.315 59.5257L140.33 59.5849L140.344 59.6443L140.359 59.7039L140.374 59.7637L140.389 59.8237L140.404 59.8839L140.419 59.9442L140.434 60.0047L140.449 60.0655L140.464 60.1264L140.479 60.1874L140.495 60.2487L140.51 60.3102L140.525 60.3718L140.541 60.4336L140.556 60.4956L140.571 60.5578L140.587 60.6202L140.603 60.6827L140.618 60.7454L140.634 60.8084L140.649 60.8714L140.665 60.9347L140.681 60.9982L140.697 61.0618L140.713 61.1256L140.729 61.1896L140.744 61.2537L140.76 61.3181L140.776 61.3826L140.793 61.4473L140.809 61.5121L140.825 61.5772L140.841 61.6424L140.857 61.7078L140.874 61.7734L140.89 61.8391L140.906 61.9051L140.923 61.9712L140.939 62.0374L140.956 62.1039L140.972 62.1705L140.989 62.2373L141.006 62.3043L141.022 62.3714L141.039 62.4387L141.056 62.5062L141.073 62.5738L141.089 62.6417L141.106 62.7097L141.123 62.7778L141.14 62.8462L141.157 62.9147L141.174 62.9833L141.191 63.0522L141.209 63.1212L141.226 63.1904L141.243 63.2597L141.26 63.3293L141.278 63.3989L141.295 63.4688L141.312 63.5388L141.33 63.609L141.347 63.6793L141.365 63.7499L141.382 63.8205L141.4 63.8914L141.418 63.9624L141.435 64.0336L141.453 64.1049L141.471 64.1764L141.489 64.2481L141.507 64.3199L141.524 64.3919L141.542 64.4641L141.56 64.5364L141.578 64.6088L141.596 64.6815L141.614 64.7543L141.633 64.8272L141.651 64.9004L141.669 64.9736L141.687 65.0471L141.706 65.1207L141.724 65.1944L141.742 65.2684L141.761 65.3424L141.779 65.4167L141.798 65.4911L141.816 65.5656L141.835 65.6403L141.853 65.7152L141.872 65.7902L141.891 65.8654L141.909 65.9407L141.928 66.0162L141.947 66.0918L141.966 66.1676L141.985 66.2435L142.004 66.3196L142.022 66.3959L142.041 66.4723L142.061 66.5489L142.08 66.6256L142.099 66.7024L142.118 66.7795L142.137 66.8566L142.156 66.934L142.175 67.0114L142.195 67.089L142.214 67.1668L142.233 67.2447L142.253 67.3228L142.272 67.401L142.292 67.4794L142.311 67.5579L142.331 67.6366L142.35 67.7154L142.37 67.7943L142.39 67.8734L142.409 67.9527L142.429 68.0321L142.449 68.1116L142.469 68.1913L142.489 68.2712L142.508 68.3512L142.528 68.4313L142.548 68.5115L142.568 68.592L142.588 68.6725L142.608 68.7532L142.628 68.8341L142.649 68.9151L142.669 68.9962L142.689 69.0775L142.709 69.1589L142.729 69.2404L142.75 69.3221L142.77 69.404L142.79 69.4859L142.811 69.568L142.831 69.6503L142.852 69.7327L142.872 69.8152L142.893 69.8979L142.913 69.9807L142.934 70.0637L142.955 70.1468L142.975 70.23L142.996 70.3133L143.017 70.3968L143.038 70.4805L143.059 70.5642L143.079 70.6481L143.1 70.7322L143.121 70.8164L143.142 70.9007L143.163 70.9851L143.184 71.0697L143.205 71.1544L143.226 71.2392L143.247 71.3242L143.269 71.4093L143.29 71.4946L143.311 71.5799L143.332 71.6654L143.353 71.7511L143.375 71.8369L143.396 71.9228L143.418 72.0088L143.439 72.0949L143.46 72.1812L143.482 72.2676L143.503 72.3542L143.525 72.4409L143.546 72.5277L143.568 72.6146L143.59 72.7016L143.611 72.7888L143.633 72.8761L143.655 72.9636L143.677 73.0511L143.698 73.1388L143.72 73.2266L143.742 73.3146L143.764 73.4026L143.786 73.4908L143.808 73.5791L143.83 73.6676L143.852 73.7561L143.874 73.8448L143.896 73.9336L143.918 74.0226L143.94 74.1116L143.962 74.2008L143.985 74.2901L144.007 74.3795L144.029 74.469L144.051 74.5587L144.074 74.6485L144.096 74.7383L144.118 74.8284L144.141 74.9185L144.163 75.0087L144.186 75.0991L144.208 75.1896L144.231 75.2802L144.253 75.3709L144.276 75.4618L144.298 75.5527L144.321 75.6438L144.344 75.735L144.366 75.8263L144.389 75.9177L144.412 76.0092L144.435 76.1009L144.457 76.1927L144.48 76.2845L144.503 76.3765L144.526 76.4686L144.549 76.5608L144.572 76.6532L144.595 76.7456L144.618 76.8382L144.641 76.9308L144.664 77.0236L144.687 77.1165L144.71 77.2095L144.733 77.3026L144.756 77.3958L144.78 77.4892L144.803 77.5826L144.826 77.6761L144.849 77.7698L144.873 77.8635L144.896 77.9574L144.919 78.0514L144.943 78.1455L144.966 78.2397L144.99 78.334L145.013 78.4284L145.037 78.5229L145.06 78.6175L145.084 78.7122L145.107 78.807L145.131 78.902L145.154 78.997L145.178 79.0921L145.202 79.1874L145.225 79.2827L145.249 79.3782L145.273 79.4737L145.297 79.5694L145.32 79.6651L145.344 79.761L145.368 79.8569L145.392 79.953L145.416 80.0491L145.44 80.1454L145.464 80.2418L145.488 80.3382L145.512 80.4348L145.536 80.5314L145.56 80.6282L145.584 80.725L145.608 80.822L145.632 80.919L145.656 81.0162L145.68 81.1134L145.705 81.2107L145.729 81.3082L145.753 81.4057L145.777 81.5033L145.802 81.601L145.826 81.6988L145.85 81.7967L145.875 81.8947L145.899 81.9928L145.923 82.091L145.948 82.1893L145.972 82.2877L145.997 82.3861L146.021 82.4847L146.046 82.5833L146.07 82.6821L146.095 82.7809L146.119 82.8798L146.144 82.9788L146.169 83.0779L146.193 83.1771L146.218 83.2764L146.243 83.3758L146.267 83.4752L146.292 83.5748L146.317 83.6744L146.342 83.7741L146.367 83.8739L146.391 83.9738L146.416 84.0738L146.441 84.1739L146.466 84.274L146.491 84.3743L146.516 84.4746L146.541 84.575L146.566 84.6755L146.591 84.7761L146.616 84.8767L146.641 84.9775L146.666 85.0783L146.691 85.1792L146.716 85.2802L146.741 85.3813L146.766 85.4824L146.791 85.5837L146.817 85.685L146.842 85.7864L146.867 85.8879L146.892 85.9894L146.918 86.0911L146.943 86.1928L146.968 86.2946L146.993 86.3965L147.019 86.4984L147.044 86.6004L147.07 86.7026L147.095 86.8047L147.12 86.907L147.146 87.0094L147.171 87.1118L147.197 87.2143L147.222 87.3168L147.248 87.4195L147.273 87.5222L147.299 87.625L147.324 87.7279L147.35 87.8308L147.376 87.9338L147.401 88.0369L147.427 88.1401L147.453 88.2433L147.478 88.3466L147.504 88.45L147.53 88.5535L147.555 88.657L147.581 88.7606L147.607 88.8642L147.633 88.968L147.658 89.0718L147.684 89.1757L147.71 89.2796L147.736 89.3836L147.762 89.4877L147.788 89.5919L147.814 89.6961L147.839 89.8004L147.865 89.9047L147.891 90.0091L147.917 90.1136L147.943 90.2182L147.969 90.3228L147.995 90.4275L148.021 90.5322L148.047 90.637L148.074 90.7419L148.1 90.8469L148.126 90.9519L148.152 91.0569L148.178 91.1621L148.204 91.2673L148.23 91.3725L148.256 91.4778L148.283 91.5832L148.309 91.6887L148.335 91.7942L148.361 91.8997L148.388 92.0054L148.414 92.1111L148.44 92.2168L148.466 92.3226L148.493 92.4285L148.519 92.5344L148.545 92.6404L148.572 92.7464L148.598 92.8525L148.624 92.9587L148.651 93.0649L148.677 93.1712L148.704 93.2775L148.73 93.3839L148.757 93.4903L148.783 93.5968L148.81 93.7033L148.836 93.8099L148.863 93.9166L148.889 94.0233L148.916 94.1301L148.942 94.2369L148.969 94.3438L148.995 94.4507L149.022 94.5577L149.048 94.6647L149.075 94.7718L149.102 94.8789L149.128 94.9861L149.155 95.0933L149.182 95.2006L149.208 95.3079L149.235 95.4153L149.262 95.5228L149.288 95.6302L149.315 95.7378L149.342 95.8453L149.369 95.953L149.395 96.0606L149.422 96.1684L149.449 96.2761L149.476 96.3839L149.503 96.4918L149.529 96.5997L149.556 96.7077L149.583 96.8157L149.61 96.9237L149.637 97.0318L149.664 97.1399L149.691 97.2481L149.717 97.3563L149.744 97.4646L149.771 97.5729L149.798 97.6812L149.825 97.7896L149.852 97.8981L149.879 98.0065L149.906 98.115L149.933 98.2236L149.96 98.3322L149.987 98.4408L150.014 98.5495L150.041 98.6582L150.068 98.767L150.095 98.8758L150.122 98.9846L150.149 99.0935L150.176 99.2024L150.203 99.3113L150.23 99.4203L150.258 99.5293L150.285 99.6384L150.312 99.7475L150.339 99.8566L150.366 99.9658L150.393 100.075L150.42 100.184L150.447 100.293L150.475 100.403L150.502 100.512L150.529 100.621L150.556 100.731L150.583 100.84L150.611 100.95L150.638 101.059L150.665 101.169L150.692 101.278L150.72 101.388L150.747 101.498L150.774 101.607L150.801 101.717L150.829 101.827L150.856 101.936L150.883 102.046L150.91 102.156L150.938 102.266L150.965 102.376L150.992 102.486L151.02 102.595L151.047 102.705L151.074 102.815L151.102 102.925L151.129 103.035L151.156 103.145L151.184 103.255L151.211 103.366L151.238 103.476L151.266 103.586L151.293 103.696L151.321 103.806L151.348 103.916L151.375 104.027L151.403 104.137L151.43 104.247L151.458 104.357L151.485 104.468L151.512 104.578L151.54 104.688L151.567 104.799L151.595 104.909L151.622 105.02Z" fill="#EFC9CD" stroke="#390D0E" stroke-width="1.6875"/>
<mask id="path-7-inside-2_33_59067" fill="white">
<path fill-rule="evenodd" clip-rule="evenodd" d="M62.4819 156.014L49.425 103.48C56.0777 98.7811 64.7272 94.8662 72.8509 91.1892C74.6867 90.3583 76.4955 89.5395 78.2485 88.7266L94.2678 153.18C91.1238 153.513 87.9945 153.901 84.9206 154.283C76.8048 155.29 69.0753 156.249 62.4819 156.014Z"/>
</mask>
<path fill-rule="evenodd" clip-rule="evenodd" d="M62.4819 156.014L49.425 103.48C56.0777 98.7811 64.7272 94.8662 72.8509 91.1892C74.6867 90.3583 76.4955 89.5395 78.2485 88.7266L94.2678 153.18C91.1238 153.513 87.9945 153.901 84.9206 154.283C76.8048 155.29 69.0753 156.249 62.4819 156.014Z" fill="#FBF2F3"/>
<path d="M62.4819 156.014L60.8443 156.421L61.151 157.655L62.4219 157.7L62.4819 156.014ZM49.425 103.48L48.4515 102.102L47.5091 102.767L47.7874 103.887L49.425 103.48ZM72.8509 91.1892L73.5468 92.7265L72.8509 91.1892ZM78.2485 88.7266L79.8862 88.3196L79.3931 86.3357L77.5386 87.1957L78.2485 88.7266ZM94.2678 153.18L94.4455 154.858L96.373 154.654L95.9055 152.773L94.2678 153.18ZM84.9206 154.283L84.7128 152.608L84.7128 152.608L84.9206 154.283ZM64.1196 155.607L51.0627 103.073L47.7874 103.887L60.8443 156.421L64.1196 155.607ZM50.3986 104.858C56.894 100.271 65.3836 96.4213 73.5468 92.7265L72.1551 89.6518C64.0707 93.311 55.2613 97.2917 48.4515 102.102L50.3986 104.858ZM73.5468 92.7265C75.3811 91.8962 77.1972 91.0742 78.9584 90.2575L77.5386 87.1957C75.7939 88.0048 73.9922 88.8203 72.1551 89.6518L73.5468 92.7265ZM76.6108 89.1337L92.6302 153.587L95.9055 152.773L79.8862 88.3196L76.6108 89.1337ZM94.0901 151.502C90.9286 151.837 87.7843 152.227 84.7128 152.608L85.1284 155.957C88.2047 155.575 91.3191 155.189 94.4455 154.858L94.0901 151.502ZM84.7128 152.608C76.5566 153.62 68.9731 154.557 62.542 154.328L62.4219 157.7C69.1776 157.941 77.0531 156.959 85.1284 155.957L84.7128 152.608Z" fill="#390D0E" mask="url(#path-7-inside-2_33_59067)"/>
<path d="M220.599 89.3712L192.808 97.1812" stroke="#390D0E" stroke-width="5.18822" stroke-linecap="round" stroke-linejoin="round"/>
<path d="M196.629 56.2928L179.026 79.1715" stroke="#390D0E" stroke-width="5.18822" stroke-linecap="round" stroke-linejoin="round"/>
<path d="M220.061 125.817L192.262 118.037" stroke="#390D0E" stroke-width="5.18822" stroke-linecap="round" stroke-linejoin="round"/>
</svg>
