<svg width="17" height="16" viewBox="0 0 17 16" fill="none" xmlns="http://www.w3.org/2000/svg">
<g id="Icon ">
<path id="Vector" d="M3.02724 2.39052C2.77719 2.64057 2.63672 2.97971 2.63672 3.33333V4C2.63672 9.52267 7.11405 14 12.6367 14H13.3034C13.657 14 13.9961 13.8595 14.2462 13.6095C14.4962 13.3594 14.6367 13.0203 14.6367 12.6667V10.4807C14.6368 10.3407 14.5927 10.2043 14.5109 10.0907C14.429 9.97714 14.3135 9.89223 14.1807 9.848L11.1854 8.84933C11.0332 8.79873 10.8678 8.80472 10.7196 8.86619C10.5715 8.92766 10.4504 9.0405 10.3787 9.184L9.62539 10.6887C7.99303 9.95112 6.6856 8.64369 5.94805 7.01133L7.45272 6.258C7.59622 6.1863 7.70906 6.06527 7.77053 5.9171C7.832 5.76893 7.83799 5.60356 7.78739 5.45133L6.78872 2.456C6.74452 2.3233 6.65971 2.20787 6.54629 2.12603C6.43287 2.0442 6.29658 2.00011 6.15672 2H3.97005C3.61643 2 3.27729 2.14048 3.02724 2.39052Z" stroke="#838799" stroke-width="1.5" stroke-linecap="round" stroke-linejoin="round"/>
</g>
</svg>
