<svg width="25" height="25" viewBox="0 0 25 25" fill="none" xmlns="http://www.w3.org/2000/svg">
<g id="Icon old/check-circle/24/on">
<g id="Vector">
<path d="M21.0649 15.9442C21.5172 14.8522 21.75 13.6819 21.75 12.5C21.75 10.1131 20.8018 7.82387 19.114 6.13604C17.4261 4.44821 15.1369 3.5 12.75 3.5C10.3631 3.5 8.07387 4.44821 6.38604 6.13604C4.69821 7.82387 3.75 10.1131 3.75 12.5C3.75 13.6819 3.98279 14.8522 4.43508 15.9442C4.88738 17.0361 5.55031 18.0282 6.38604 18.864C7.22177 19.6997 8.21392 20.3626 9.30585 20.8149C10.3978 21.2672 11.5681 21.5 12.75 21.5C13.9319 21.5 15.1022 21.2672 16.1942 20.8149C17.2861 20.3626 18.2782 19.6997 19.114 18.864C19.9497 18.0282 20.6126 17.0361 21.0649 15.9442Z" fill="#008042"/>
<path d="M9.75 12.5L11.75 14.5L15.75 10.5M21.75 12.5C21.75 13.6819 21.5172 14.8522 21.0649 15.9442C20.6126 17.0361 19.9497 18.0282 19.114 18.864C18.2782 19.6997 17.2861 20.3626 16.1942 20.8149C15.1022 21.2672 13.9319 21.5 12.75 21.5C11.5681 21.5 10.3978 21.2672 9.30585 20.8149C8.21392 20.3626 7.22177 19.6997 6.38604 18.864C5.55031 18.0282 4.88738 17.0361 4.43508 15.9442C3.98279 14.8522 3.75 13.6819 3.75 12.5C3.75 10.1131 4.69821 7.82387 6.38604 6.13604C8.07387 4.44821 10.3631 3.5 12.75 3.5C15.1369 3.5 17.4261 4.44821 19.114 6.13604C20.8018 7.82387 21.75 10.1131 21.75 12.5Z" stroke="white" stroke-width="1.5" stroke-linecap="round" stroke-linejoin="round"/>
</g>
</g>
</svg>
