<svg width="16" height="16" viewBox="0 0 16 16" fill="none" xmlns="http://www.w3.org/2000/svg">
<g id="Name=dots-vertical">
<path id="Vector" d="M7.99999 3.33332V3.33999M7.99999 7.99999V8.00666M7.99999 12.6667V12.6733M7.99999 3.99999C7.82318 3.99999 7.65361 3.92975 7.52859 3.80473C7.40357 3.6797 7.33333 3.51013 7.33333 3.33332C7.33333 3.15651 7.40357 2.98694 7.52859 2.86192C7.65361 2.73689 7.82318 2.66666 7.99999 2.66666C8.17681 2.66666 8.34638 2.73689 8.4714 2.86192C8.59642 2.98694 8.66666 3.15651 8.66666 3.33332C8.66666 3.51013 8.59642 3.6797 8.4714 3.80473C8.34638 3.92975 8.17681 3.99999 7.99999 3.99999ZM7.99999 8.66666C7.82318 8.66666 7.65361 8.59642 7.52859 8.47139C7.40357 8.34637 7.33333 8.1768 7.33333 7.99999C7.33333 7.82318 7.40357 7.65361 7.52859 7.52859C7.65361 7.40356 7.82318 7.33332 7.99999 7.33332C8.17681 7.33332 8.34638 7.40356 8.4714 7.52859C8.59642 7.65361 8.66666 7.82318 8.66666 7.99999C8.66666 8.1768 8.59642 8.34637 8.4714 8.47139C8.34638 8.59642 8.17681 8.66666 7.99999 8.66666ZM7.99999 13.3333C7.82318 13.3333 7.65361 13.2631 7.52859 13.1381C7.40357 13.013 7.33333 12.8435 7.33333 12.6667C7.33333 12.4898 7.40357 12.3203 7.52859 12.1953C7.65361 12.0702 7.82318 12 7.99999 12C8.17681 12 8.34638 12.0702 8.4714 12.1953C8.59642 12.3203 8.66666 12.4898 8.66666 12.6667C8.66666 12.8435 8.59642 13.013 8.4714 13.1381C8.34638 13.2631 8.17681 13.3333 7.99999 13.3333Z" stroke="black" stroke-width="1.5" stroke-linecap="round" stroke-linejoin="round"/>
</g>
</svg>
