<svg width="25" height="25" viewBox="0 0 25 25" fill="none" xmlns="http://www.w3.org/2000/svg">
<g id="Icon Left">
<path id="Vector" d="M12.499 4.854C13.0365 4.2447 13.7467 3.81351 14.5352 3.61779C15.3238 3.42208 16.1532 3.47112 16.9132 3.7584C17.6731 4.04568 18.3276 4.55757 18.7895 5.22596C19.2514 5.89435 19.4988 6.68754 19.4988 7.5C19.4988 8.31246 19.2514 9.10565 18.7895 9.77404C18.3276 10.4424 17.6731 10.9543 16.9132 11.2416C16.1532 11.5289 15.3238 11.5779 14.5352 11.3822C13.7467 11.1865 13.0365 10.7553 12.499 10.146M15.499 21.5H3.49902V20.5C3.49902 18.9087 4.13116 17.3826 5.25638 16.2574C6.3816 15.1321 7.90772 14.5 9.49902 14.5C11.0903 14.5 12.6164 15.1321 13.7417 16.2574C14.8669 17.3826 15.499 18.9087 15.499 20.5V21.5ZM15.499 21.5H21.499V20.5C21.4992 19.4467 21.222 18.4119 20.6955 17.4997C20.1689 16.5875 19.4115 15.8299 18.4994 15.3032C17.5872 14.7765 16.5525 14.4992 15.4992 14.4992C14.4459 14.4991 13.4112 14.7764 12.499 15.303M13.499 7.5C13.499 8.56087 13.0776 9.57828 12.3275 10.3284C11.5773 11.0786 10.5599 11.5 9.49902 11.5C8.43816 11.5 7.42074 11.0786 6.6706 10.3284C5.92045 9.57828 5.49902 8.56087 5.49902 7.5C5.49902 6.43913 5.92045 5.42172 6.6706 4.67157C7.42074 3.92143 8.43816 3.5 9.49902 3.5C10.5599 3.5 11.5773 3.92143 12.3275 4.67157C13.0776 5.42172 13.499 6.43913 13.499 7.5Z" stroke="#6B6F80" stroke-width="1.5" stroke-linecap="round" stroke-linejoin="round"/>
</g>
</svg>
