<svg width="25" height="24" viewBox="0 0 25 24" fill="none" xmlns="http://www.w3.org/2000/svg">
<g id="Icon ">
<path id="Vector" d="M14.758 14.1213C15.3206 13.5587 15.6367 12.7956 15.6367 12C15.6367 11.2044 15.3206 10.4413 14.758 9.87868C14.1954 9.31607 13.4324 9 12.6367 9C11.8411 9 11.078 9.31607 10.5154 9.87868C9.95279 10.4413 9.63672 11.2044 9.63672 12C9.63672 12.7956 9.95279 13.5587 10.5154 14.1213C11.078 14.6839 11.8411 15 12.6367 15C13.4324 15 14.1954 14.6839 14.758 14.1213Z" stroke="#838799" stroke-width="1.5" stroke-linecap="round" stroke-linejoin="round"/>
<path id="Vector_2" d="M3.09473 12C4.36873 7.943 8.15973 5 12.6367 5C17.1147 5 20.9047 7.943 22.1787 12C20.9047 16.057 17.1147 19 12.6367 19C8.15973 19 4.36873 16.057 3.09473 12Z" stroke="#838799" stroke-width="1.5" stroke-linecap="round" stroke-linejoin="round"/>
</g>
</svg>
